<?xml version="1.0" encoding="UTF-8"?>
<svg id="Layer_2" data-name="Layer 2" xmlns="http://www.w3.org/2000/svg" viewBox="0 0 400.16 50">
  <defs>
    <style>
      .cls-1 {
        fill: #fff;
      }
    </style>
  </defs>
  <g id="Layer_1-2" data-name="Layer 1">
    <path class="cls-1" d="m387.46,24.71v-7.4c-4.29,1.3-8.41,2.1-12.59,2.71v1.99c3.2.81,3.8,1.01,3.8,4.61v15.09c0,4.29-.69,4.7-4.49,5.1v2.19h19.1v-2.19c-5.39-.49-5.79-.81-5.79-5.1v-12.9c1.21-2.71,2.59-3.6,3.89-3.6,1.21,0,1.99.49,3.2,1.5.49.4,1.21.6,2.19.29,1.9-.69,3.4-2.71,3.4-5.21s-1.9-4.29-4.7-4.29c-2.59,0-5.3,3-7.8,7.29h-.2v-.07Zm-27.91-4.49c2.71,0,4.29,3.6,4.29,7.2-.09,1.21-.4,1.3-1.5,1.41-2.91.11-5.39.11-8.3.2.4-5.59,2.91-8.79,5.39-8.79h.09l.02-.02Zm11.29,20.3c-2.39,2.1-5.01,3-7.8,3-5.01,0-9.1-3.8-9.39-11.2,6.8-.29,15.41-1.01,16.59-1.1,1.61-.2,1.99-1.1,1.99-2.5.09-5.7-4.9-11.2-11.29-11.2h-.09c-3.8,0-7.6,1.9-10.69,5.01-3.34,3.34-5.21,7.87-5.21,12.59,0,8.01,5.21,14.89,14.49,14.89,2.91,0,8.3-1.41,12.59-7.8l-1.21-1.7.02.02Zm-29.61-13.91c-.09-1.41-1.01-6.4-1.7-8.01-1.61-.69-3.51-1.3-6.71-1.3-7.29,0-11.7,4.49-11.7,9.91,0,5.99,5.7,8.7,8.9,10.31,4.29,1.99,5.3,3.8,5.3,5.79,0,2.1-1.5,3.8-3.8,3.8-4.29,0-7.49-4.81-8.99-9.19l-2.1.2c.09,3.4.69,8.21,1.1,9.39,1.41,1.01,5.1,2.39,8.79,2.39,5.9,0,12.5-3.4,12.5-10.31,0-5.39-3.8-7.89-9.39-10.31-3.6-1.61-5.21-3.2-5.21-5.39s1.7-3.8,3.6-3.8c3.31,0,5.5,2.91,7.4,7.09l1.99-.6.02.02Zm-21.49,22.5v-2.19c-4.2-.6-4.49-.89-4.49-5.7v-23.79c-3.89,1.1-8.5,1.99-12.7,2.5v1.99c3.4.6,3.8.81,3.8,5.39v13.8c0,5.01-.4,5.21-4.49,5.7v2.19h17.89v.11Zm-9.59-36.09c2.91,0,5.01-2.19,5.01-4.9s-2.19-4.9-5.01-4.9-5.01,2.1-5.01,4.9c.09,2.59,2.39,4.9,5.01,4.9h0Zm-9.59,33.5l-.69-2.39c-1.21.6-2.3.81-3.51.81-1.5,0-4-.6-4-6.1v-17.2h6.4c1.1-.6,1.3-2.59.4-3.4h-6.8v-10.11l-1.01-.4-7.89,5.39v5.1h-2.8l-1.99,2.5.29.81h4.41v19.59c0,6.31,3.11,8.79,8.5,8.79.49,0,1.61-.2,2.91-.81l5.79-2.59v.02Zm-35.89-21.8v-7.4c-4.29,1.3-8.41,2.1-12.59,2.71v1.99c3.2.81,3.8,1.01,3.8,4.61v15.09c0,4.29-.69,4.7-4.49,5.1v2.19h19.1v-2.19c-5.39-.49-5.79-.81-5.79-5.1v-12.9c1.21-2.71,2.59-3.6,3.89-3.6,1.21,0,1.99.49,3.2,1.5.49.4,1.21.6,2.19.29,1.9-.69,3.4-2.71,3.4-5.21s-1.9-4.29-4.7-4.29c-2.59,0-5.3,3-7.8,7.29h-.2v-.07Zm-27.91-4.49c2.71,0,4.29,3.6,4.29,7.2-.09,1.21-.4,1.3-1.5,1.41-2.91.11-5.39.11-8.3.2.4-5.59,2.91-8.79,5.39-8.79h.09l.02-.02Zm11.29,20.3c-2.39,2.1-5.01,3-7.8,3-5.01,0-9.1-3.8-9.39-11.2,6.8-.29,15.41-1.01,16.59-1.1,1.61-.2,1.99-1.1,1.99-2.5.09-5.7-4.9-11.2-11.29-11.2h-.09c-3.8,0-7.6,1.9-10.69,5.01-3.34,3.34-5.21,7.87-5.21,12.59,0,8.01,5.21,14.89,14.49,14.89,2.91,0,8.3-1.41,12.59-7.8l-1.21-1.7.02.02Zm-23.79-22.29h-12.59v2.19c3.8.6,4.09,1.5,3.31,3.8-1.61,4.81-3.8,11.2-5.21,14.4-1.01-2.91-3.6-9.7-5.3-14.6-.89-2.39-.6-2.91,2.71-3.6v-2.19h-17.2v2.19c3.4.81,4.29,1.5,5.5,4.61,3.4,8.01,6.6,16.1,10.11,24.8h2.71c4.2-10.6,7.6-19.01,10.2-24.69,1.5-3.31,2.3-4.09,5.79-4.7v-2.19l-.02-.02Zm-46.49,25.29c-1.5,1.01-2.59,1.1-3.8,1.1-3.2,0-8.21-3.31-8.21-11.9,0-10.6,5.39-12.39,7.09-12.39,1.99,0,3.89,1.21,5.01,3.6v19.59h-.09Zm13.71,1.5l-1.5-.11c-2.91-.4-3.31-.6-3.31-4.61V0c-3.6,1.01-9.1,1.99-13.6,2.5v2.19c4.29.49,4.7.81,4.7,4.61v8.5c-1.5-.2-2.3-.29-2.91-.29-10.89,0-19.1,7.8-19.1,17.2,0,10.4,8.3,15.3,14.2,15.3.81,0,1.79-.09,3.6-1.3l4.2-2.71v4c5.5-1.61,12.1-2.39,13.8-2.71v-2.3l-.09.02Zm-54.2-14.49h-10.89c1.79-5.01,3.6-10,5.5-15.09h.2l5.21,15.09h-.02Zm20.71,18.6v-2.5c-4.41-.6-5.3-1.5-7.69-7.6-4.49-12.01-8.9-24.2-13.31-36.4l-3.6.89-14.29,35.89c-2.3,5.9-3.11,6.6-7.8,7.2l-.09,2.39h15.61v-2.39c-5.1-.6-5.21-1.61-4.29-5.01.81-2.8,1.7-5.3,2.5-7.49h13.39c1.01,2.91,2.1,5.79,2.8,7.89,1.1,3.11.81,3.89-3.31,4.49v2.39h20.1l-.02.25Zm-65.88-28.91c2.71,0,4.29,3.6,4.29,7.2-.09,1.21-.4,1.3-1.5,1.41-2.91.11-5.39.11-8.3.2.4-5.59,2.91-8.79,5.39-8.79h.09l.02-.02Zm11.29,20.3c-2.39,2.1-5.01,3-7.69,3-5.01,0-9.1-3.8-9.39-11.2,6.8-.29,15.41-1.01,16.59-1.1,1.61-.2,1.99-1.1,1.99-2.5.09-5.7-4.9-11.2-11.29-11.2h-.09c-3.8,0-7.6,1.9-10.69,5.01-3.34,3.34-5.21,7.87-5.21,12.59,0,8.01,5.21,14.89,14.49,14.89,2.91,0,8.3-1.41,12.59-7.8l-1.3-1.7v.02Zm-24.89,8.61v-2.19c-3.6-.6-4-.6-4-5.1v-12.79c0-7.69-3.6-11.61-9.59-11.61-3.4,0-6.91,2.1-9.3,4.49V.04c-4.2,1.1-9.1,1.99-12.79,2.5v1.99c3.6.4,3.89.4,3.89,4.7v32.49c0,4.41-.4,4.7-4.41,5.1v2.19h16.5v-2.19c-2.91-.49-3.2-1.01-3.2-4.81v-17.51c1.5-1.5,3.4-1.99,5.01-1.99,2.71,0,5.01,1.79,5.01,7.2v12.3c0,3.8-.2,4.29-3.6,4.81v2.19h16.5l-.02.11ZM41.01,15.54c-.29-4.49-.69-10.6-.81-13.51h-1.7c-1.21,1.3-2.19,1.7-4,1.7H6.4c-1.99,0-2.91-.11-4-1.7H.81c-.09,3.6-.6,8.7-.81,13.8h2.5c.89-3.49,1.79-5.9,2.91-7,1.01-1.1,2.3-1.9,8.01-1.9h2.39v33.01c0,5.9-.69,6.4-6.6,6.8v2.39h22.79v-2.5c-6.1-.49-6.8-.89-6.8-6.8V6.82h3.2c4.09,0,5.9.4,7.09,1.7,1.3,1.3,2.19,3.6,3.11,7.2l2.39-.2.02.02Z"/>
  </g>
</svg>