<?xml version="1.0" encoding="UTF-8"?>
<svg id="Layer_2" data-name="Layer 2" xmlns="http://www.w3.org/2000/svg" viewBox="0 0 875.53 412.3">
  <defs>
    <style>
      .cls-1 {
        fill: #fff;
        stroke-width: 0px;
      }
    </style>
  </defs>
  <g id="Layer_1-2" data-name="Layer 1">
    <g id="a4wBGPk-RTs4dxOJj4u-0">
      <g vector-effect="non-scaling-stroke">
        <g id="CQpklfC5r5VSpvVM-qQag">
          <g vector-effect="non-scaling-stroke">
            <g id="_kM97k05Eszo04u0qSeiL" data-name=" kM97k05Eszo04u0qSeiL">
              <path class="cls-1" d="m59.58,0C92.47,0,119.16,26.69,119.16,59.58s-26.69,59.58-59.58,59.58S0,92.47,0,59.58,26.69,0,59.58,0Z" vector-effect="non-scaling-stroke"/>
            </g>
            <g id="atoLaFgCeej1A8c2ftEUO">
              <path class="cls-1" d="m352.72,0C385.61,0,412.3,26.69,412.3,59.58s-26.69,59.58-59.58,59.58-59.58-26.69-59.58-59.58S319.83,0,352.72,0Z" vector-effect="non-scaling-stroke"/>
            </g>
            <g id="U6klTep0l8q8ZMduqyMaf">
              <path class="cls-1" d="m206.15,0C239.04,0,265.73,26.69,265.73,59.58s-26.69,59.58-59.58,59.58-59.58-26.69-59.58-59.58S173.26,0,206.15,0Z" vector-effect="non-scaling-stroke"/>
            </g>
            <g id="acq7gs-F08r0zjw_4m2r0" data-name="acq7gs-F08r0zjw 4m2r0">
              <path class="cls-1" d="m59.58,146.57c32.89,0,59.58,26.69,59.58,59.58s-26.69,59.58-59.58,59.58S0,239.04,0,206.15s26.69-59.58,59.58-59.58Z" vector-effect="non-scaling-stroke"/>
            </g>
            <g id="Ua8moFFqT65UDMWGtkKyl">
              <path class="cls-1" d="m206.15,146.57c32.89,0,59.58,26.69,59.58,59.58s-26.69,59.58-59.58,59.58-59.58-26.69-59.58-59.58,26.69-59.58,59.58-59.58Z" vector-effect="non-scaling-stroke"/>
            </g>
            <g id="QFHpveDEduWt2gWia_-sV" data-name="QFHpveDEduWt2gWia -sV">
              <path class="cls-1" d="m352.72,146.57c32.89,0,59.58,26.69,59.58,59.58s-26.69,59.58-59.58,59.58-59.58-26.69-59.58-59.58,26.69-59.58,59.58-59.58Z" vector-effect="non-scaling-stroke"/>
            </g>
            <g id="_-dZsx_NNoBTmiyaYLilc1" data-name="-dZsx_NNoBTmiyaYLilc1">
              <path class="cls-1" d="m59.58,293.14c32.89,0,59.58,26.69,59.58,59.58s-26.69,59.58-59.58,59.58S0,385.61,0,352.72s26.69-59.58,59.58-59.58Z" vector-effect="non-scaling-stroke"/>
            </g>
            <g id="BDYXKdhnnFJ4WzNmoy">
              <path class="cls-1" d="m206.15,293.14c32.89,0,59.58,26.69,59.58,59.58s-26.69,59.58-59.58,59.58-59.58-26.69-59.58-59.58,26.69-59.58,59.58-59.58Z" vector-effect="non-scaling-stroke"/>
            </g>
            <g id="eDFRBD3Xz8x7Z66skeLrE">
              <path class="cls-1" d="m352.72,293.14c32.89,0,59.58,26.69,59.58,59.58s-26.69,59.58-59.58,59.58-59.58-26.69-59.58-59.58,26.69-59.58,59.58-59.58Z" vector-effect="non-scaling-stroke"/>
            </g>
          </g>
        </g>
        <g id="YUoAOtMCLcpQyUf6rJEMK">
          <path class="cls-1" d="m522.81,0c.31,0,.63,0,.94,0h0s291.26,0,291.26,0h0c.31,0,.62,0,.94,0C848.84,0,875.53,26.69,875.53,59.58c0,.31,0,.63,0,.94h0v291.26h0c0,.31,0,.62,0,.94,0,32.89-26.69,59.58-59.58,59.58-.31,0-.63,0-.94,0h0s-291.26,0-291.26,0h0c-.31,0-.62,0-.94,0-32.89,0-59.58-26.69-59.58-59.58s26.69-59.58,59.58-59.58c.31,0,.63,0,.94,0h0s219.07,0,219.07,0h0c7.49,0,13.55-6.07,13.55-13.55h0c0-7.56-6.13-13.69-13.69-13.69h-218.93v-.17c-.31,0-.62,0-.94,0-32.89,0-59.58-26.69-59.58-59.58,0-.45,0-.9.01-1.35h-.01V60.52h0c0-.31,0-.62,0-.94C463.23,26.69,489.92,0,522.81,0h0Zm220.04,146.73c7.47,0,13.52-6.05,13.52-13.52h0c0-7.76-6.29-14.05-14.05-14.05h-146.25c-7.55,0-13.68,6.12-13.68,13.68h0c0,7.67,6.22,13.89,13.89,13.89h146.56Z" vector-effect="non-scaling-stroke"/>
        </g>
      </g>
    </g>
  </g>
</svg>