<?xml version="1.0" encoding="UTF-8"?>
<svg id="Layer_2" data-name="Layer 2" xmlns="http://www.w3.org/2000/svg" viewBox="0 0 345.43 46.33">
  <defs>
    <style>
      .cls-1 {
        fill: #fff;
      }
    </style>
  </defs>
  <g id="Layer_1-2" data-name="Layer 1">
    <g>
      <path class="cls-1" d="m207.69,4.54c.38.51-.13,1.28.38,1.79.13.13.38,0,.38.13,0,.26-.38.64-.13.77.13.13.38-.13.51.13q0,.13-.13.26c.51.26,0,.64.26,1.03l.13-.13c.26.9-.13,2.05.51,2.95.13.26.26.51.51.64.38.26.38,0,.64-.26.13-.13.38-.13.51-.26s.38,0,.38.13c.13.9,1.03,1.03,1.54,1.67-.13,0-.13.26-.13.38-.13,1.15,0,2.31.38,3.33.13.26.38.38.51.51.38.77.51,1.54.64,2.43-.13,0-.13.26-.13.26-.13.9.38,1.67.9,2.43.13.26.64.64,1.15.51.13,0,.13.26.26.38.26.13.64,0,.77.26s.26.51.38.64c0,0,.13,0,.13-.13.26.64.9.77,1.41,1.15,0-.13,0-.26.13-.26.26.26.9.64.51,1.15,0-.13-.13-.13-.26-.13s-.13.13-.13.13c.26.26.38.51.64.64.13.13.38.26.38.64,0,.13-.13.13-.26.13.13,0-.13.26.13.13,0,0,0-.26.13-.26.38.26.38.77.51,1.03.26.64.26,1.28.38,2.05,0,.13.13.13.26.13q0-.13.13-.26c.26-.13.13.26.26.26v-.9c0-.13.13-.13.26-.13.38.26.51.77.9.9,0-.13-.13-.38.13-.38.13,0,.26.26.26.38.13,1.15-.26,2.43.77,3.33,0,0-.13,0-.26.13-.13,0,0,.13.13.13,0-.13.26-.13.38-.13.26-.13.13.26.26.26.64-.13,1.03.51,1.28,1.03.13.38.64.64.77,1.15,0,.13.13.26.13.51,0,.13.38.13.38.38.26.9.64,1.67.51,2.56-.13.77-.26,1.54-.13,2.31.13.51,1.03,1.67.13,1.92-.64.13-1.28-.13-1.92.13s-.77,1.03-1.15,1.28c-.38.13-.77.26-1.15.51-.26.13-.26-.38-.26-.51-.13-.26-.38-.38-.64-.51-.9-.26-1.67-.64-2.56-.38-.64.13-1.15.51-1.67.9l-15.89-.38v-7.18h-6.02v-21.27c.77.38,1.54.51,2.18.9.51.26.64,1.03,1.15,1.15.51.13,1.03.51,1.67.51.64-.13,1.28-.38,1.41-1.15,0-.26.13-.51.13-.64.9-1.28,1.15-2.56,1.41-3.97.13-1.15-.26-2.31-.13-3.46.13-.51.13-1.03.26-1.54.13-.26.26-.64.51-.9-.13,0-.51.13-.51-.13,0-.51.26-1.03.51-1.41,0-.13.13,0,.13.13.13-.77.13-1.54.51-2.18.13-.38.26-1.03.51-.9.26.13,1.03,1.15,1.03,1.15h0Z"/>
      <path class="cls-1" d="m164.9,22.1l1.67-1.03,2.05,2.05v14.35l-1.92,1.79,8.97,5,8.71-7.43-1.03-1.03-2.56,2.05-2.95-1.79v-15.25s2.69,3.72,6.79,3.46c0,0,6.15-.13,7.94-4.74,0,0-6.66,3.59-8.46-4.87l-6.53,5.51-4.48-4.74-8.97,5.64.77,1.03h0ZM44.84,11.34c-.9,0-1.79-.38-2.43-1.03h.9c2.31-.26,2.18-1.54,2.18-1.54V3.01c2.18,0,3.2-2.82,3.2-2.82,0,0-1.54,1.03-3.97.26,0,0-2.82-1.15-4.48.26-1.67,1.41-1.92,2.31-2.31,3.2.38-.51,2.69-2.31,5.13-1.41v6.66s0,.9-1.03.64c-.64-.9-.9-1.79-.9-2.82,0-1.54.64-2.95,1.79-3.72-2.56,0-4.36,2.18-4.36,4.74,0,2.95,2.05,5,4.87,5,2.56,0,4.61-1.79,5-4.23-.64,1.41-2.05,2.56-3.59,2.56Zm18.45-.51l-2.18-1.67,3.97-2.18-2.18-3.97-4.61,2.56.38.51v3.97l-.51.38,2.82,2.31,3.97-2.31-.26-.51-1.41.9Zm-2.18-6.02l1.67,2.82-1.67.9v-3.72Zm-8.33.38l-.9.51v4.23l1.28,1.03-2.18,1.54-2.31-1.92.51-.38V3.9c0-1.92-.64-2.31-.64-2.31l3.33-1.28v4.74l2.43-1.67,2.82,2.31-.64.26v3.72l1.54,1.28-2.18,1.67-2.43-1.92.51-.51v-4.1s-1.15-.9-1.15-.9Zm86.1,32.42v-14.35l2.31-1.41-7.94-6.28-7.05,5.89,3.33,2.18v13.45l-2.18,2.82,9.48,5,5.77-5.38c-.13.13-3.72-1.92-3.72-1.92h0Zm1.28-27.42l-5.64-3.97-3.46,5,5.64,3.97,3.46-5Zm185.4,27.42v-14.35l2.31-1.41-7.94-6.28-7.05,5.89,3.33,2.18v13.45l-2.18,2.82,9.48,5,5.77-5.38s-3.72-1.92-3.72-1.92Zm1.28-27.42l-5.64-3.97-3.46,5,5.64,3.97,3.46-5Zm14.73,27.29V6.59l-11.28,3.59s2.18,1.15,2.18,3.2v23.7l-2.31,2.82,9.48,5,5.77-5.38-3.84-2.05h0Zm-304.81-5.38c-2.95,2.95-6.79,5.13-9.99,5.89V14.28c2.05,1.03,3.46.64,3.46.64,2.18,0,5.64-2.56,6.28-5.13-4.87,3.84-10.63-3.59-10.63-3.59l-9.99,10.51v18.07c-3.33-3.08-5.51-7.82-5.51-13.33,0-7.3,2.95-12.56,7.69-15.12C8.71,6.72,0,15.18,0,25.69c0,11.28,8.2,19.35,18.58,19.35,7.3.13,15.25-5.38,18.19-12.94Zm-20.63,2.95l7.43-5.89V11.85c.64.77,1.41,1.28,1.92,1.79v24.73c-.38,0-.77.13-1.15.13-2.95-.13-5.89-1.41-8.2-3.46Zm291.87.51v-11.15l1.79-1.54-10.76-7.18c-6.15,1.28-16.4,6.92-18.32,14.61-1.92,7.82,2.05,11.53,5.77,13.71,2.43,1.54,4.36.26,4.36.26l7.94-5,6.92,5.25,7.3-5.25s-5-3.72-5-3.72Zm-11.53,2.69c-2.31,0-8.97-2.82-8.84-8.2s2.69-8.07,4.87-9.87l6.28,4.1v12.17c0,.13.26,1.79-2.31,1.79h0Zm-68.68-27.29l7.3-5,6.92,4.87,9.48-4.87,7.05,4.87,8.97-4.74,8.07,5.13v26.27l3.59,2.05-5.77,5.38-7.3-3.84V15.44l-5.77-3.33-1.15.9v24.47l3.59,2.05-5.77,5.38-7.3-3.84V15.44l-6.02-3.33-1.15.9v24.47l3.59,2.05-5.77,5.38-7.3-3.84V13.77l-5.25-2.82h0Zm-67.78,28.06l-7.69-5.38,14.22-6.41-7.82-12.56-16.66,8.07,1.79,1.41v12.17l-1.79,1.28,10.12,7.18,13.97-7.05-.77-1.41-5.38,2.69h0Zm-7.43-18.58l5.77,8.97-5.77,2.56s0-11.53,0-11.53Zm-54.2,1.67l-.9-1.03,8.97-5.64,4.48,4.74,6.53-5.51c1.79,8.46,8.46,4.87,8.46,4.87-1.79,4.61-7.94,4.74-7.94,4.74-4.1.26-6.79-3.46-6.79-3.46v15.5l3.08,1.54,2.56-2.05,1.03,1.03-8.71,7.43-8.97-5,1.92-1.79v-14.35l-2.05-2.05s-1.67,1.03-1.67,1.03Zm-13.45,14.22v-13.07l-2.31-1.92,7.18-6.02,6.41,5.89-2.18,1.79v12.68l3.72,2.56,1.15-1.15.9.64-6.79,7.18-8.33-6.79-7.56,6.41-10.89-6.92,2.56-1.67v-11.15l-3.46-3.46,7.82-5.89,5.64,6.02v14.09l3.97,2.56,2.18-1.79Zm-31.13-21.4l-17.81,8.46,2.05,1.03v11.66l-1.92,1.41,13.58,7.18,13.97-10.76v-11.28s-9.87-7.69-9.87-7.69Zm0,24.09l-6.66-4.48v-14.73l6.66,5.38v13.84Z"/>
    </g>
  </g>
</svg>