<svg height="147.46" viewBox="0 0 999 147.46" width="999" xmlns="http://www.w3.org/2000/svg"><g fill="#fff"><path d="m193.01 18.11c0 8.24 6.39 14.96 14.24 14.96s14.24-6.58 14.24-14.96-6.39-14.96-14.24-14.96-14.24 6.71-14.24 14.96"/><path d="m231.9 9.88v6.46l.89.12c7.67.97 9.26 5.71 9.4 13.57v68.31c0 11.41-4.22 11.41-8.7 11.41h-1.01v6.85h41.89v-6.85h-1.01c-4 0-8.27-.68-8.27-8.83v-100.92z"/><path d="m186.52 46.25v6.46l.89.11c7.83 1 9.4 5.93 9.4 13.56v31.96c0 11.41-3.96 11.41-8.55 11.41h-1.01v6.85h41.74v-6.85h-1.01c-4.11 0-8.13-.68-8.27-8.84v-64.55z"/><path d="m319.83 41.13v6.7l.86.14c7.4 1.17 8.85 3.73 8.85 7.77 0 2.93-1.53 6.32-2.76 9.05 0 0-8.47 19.32-10 22.82-1.6-3.56-11.82-26.38-11.82-26.38l-.23-.54c-1.07-2.52-2.29-5.38-2.29-8 0-3.47 2.88-4.49 5.3-4.72l.93-.1v-6.74h-40.14v6.78l.95.06c6.11.42 7.98 4.69 10.34 10.08l.11.26s25.23 56.27 25.61 57.11c-1.91 5.21-6.96 14.74-10.77 14.74-1.19 0-2.38-1.26-3.78-2.72-2.13-2.24-4.8-5.04-9.13-5.04-5.99 0-10.86 4.92-10.86 10.96 0 7.7 6.94 11.86 13.47 11.86 17.51 0 24.39-15.86 29.91-28.62l21.74-50.83.74-1.76c3.37-7.99 5.81-13.77 14.52-16.05l.76-.2v-6.62h-32.32z"/><path d="m39.86 94.84v-70.61c0-9.52 0-13.08 10.15-13.08 15.91 0 32.17 5.46 32.17 45.95 0 45.59-16.34 51.44-30.58 51.44-11.75 0-11.75-2.36-11.75-13.7m-39.85-91.76v7.14h1.02c9.99 0 13.04 3.04 13.04 12.94v73.35c0 9.91-3.05 12.93-13.04 12.93h-1.02v7.15h51.45c7.93 0 17.2-.48 25.73-4.03 19.58-7.99 32.24-28.21 32.24-51.51 0-25.49-12.02-45.1-32.96-53.79-7.07-2.86-15.02-4.19-25.01-4.19h-51.45z"/><path d="m131.28 96.06c0-13.6 11.72-18.21 22.03-19.63v23.02c-1.76 2.12-6.98 7.71-12.9 7.71s-9.13-4.14-9.13-11.1m-18.26-37.28c0 6.12 5.26 9.89 10.13 9.89s9.19-4.09 11.69-11.52c0 .02.19-.53.19-.53 1.91-5.46 3.56-10.16 9.73-10.16 2.38 0 4.19.68 5.53 2.08 2.82 2.97 3.02 8.84 3.02 13.54v5.53c-14.38 2.42-45.81 8.14-45.81 30.58 0 12.68 8.35 20.25 22.33 20.25 9.16 0 16.69-2.76 24.26-8.75 3.37 5.52 8.58 8.75 14.58 8.75s13.12-3.94 16.91-9.58l.32-.47-1.57-4.25-.95.36c-1.11.44-2.28.86-3.26.86-3.52 0-3.77-2.51-3.88-6.6l-.03-.91v-32.37c0-6.67 0-14.22-7.03-20.3-6.45-5.45-18.44-5.87-21.96-5.87-27.05 0-34.2 12.75-34.2 19.48"/><path d="m911.18 9.88v6.46l.89.12c7.67.97 9.25 5.71 9.39 13.57v68.31c-.42 11.41-4.01 11.41-8.55 11.41h-1.01v6.85h41.74v-6.85h-1.01c-4.11 0-8.13-.69-8.26-8.85v-41.19c.73-.42 2.41-1.35 2.41-1.35 3.4-1.97 6.91-4 10.48-4 7.86 0 9.57 7.44 9.57 9.29v34.7c-.42 11.41-4 11.41-8.55 11.41h-1.01v6.85h41.73v-6.85h-1.01c-4.09 0-8.13-.69-8.26-8.85v-39.55c0-12.16-9.63-22.06-21.45-22.06-10.13 0-16.98 5-23.91 10.62v-49.92z"/><path d="m730.99 53.77v-15.87l-33.19 9.88v6.46l.89.11c7.83.99 9.39 5.93 9.39 13.56v30.43c0 10.91-3.13 11.41-9.13 11.41h-1.01v6.85h43.33v-6.85h-1.01c-5.96 0-8.88-1.34-9.28-8.89 0 0 0-32.9 0-33.54 2.05-3.31 7.05-9.31 9.57-9.31 1.25 0 2.97.76 4.8 1.57 2.35 1.04 5.02 2.23 7.67 2.23 5.59 0 10.14-4.98 10.14-11.1s-4.37-12.93-10.88-12.93c-8.32 0-16.09 9.21-21.3 15.99"/><path d="m368.03 3.08-7.52 32.25 7.02 2.01.41-.65c6.43-10.33 17.11-22.89 31.61-25.29v85.13c0 9.91-3.04 12.93-13.04 12.93h-1.01v7.15h53.91v-7.15h-1.01c-5.17 0-8.33-.84-10.25-2.72-1.93-1.89-2.79-5.05-2.79-10.22v-85.22c12.61.93 24.69 13.55 31.9 25.39l.4.66 7.05-2.01-8.29-32.25h-88.39z"/><path d="m506.88 9.88v6.46l.89.12c7.67.97 9.26 5.71 9.41 13.57v68.31c0 11.41-4.23 11.41-8.7 11.41h-1.02v6.85h41.89v-6.85h-1.01c-1.91 0-4.08-.17-5.67-1.38-1.75-1.33-2.6-3.76-2.6-7.46v-100.91z"/><path d="m476.25 47.97c9.17 0 12.99 6.73 13.16 22.98h-28.48c.37-9.02 3.93-22.98 15.32-22.98m-28.31 4.8c-6.23 7.94-9.66 17.96-9.66 28.22 0 21.34 16.51 37.44 38.41 37.44 13.72 0 23.8-5.21 33.67-17.43l.64-.79-4.97-4.56-.67.74c-3.65 4.03-11.16 10.78-20.57 10.78-6.68 0-12.79-3.24-17.23-9.13-3.86-5.12-6.09-11.77-6.3-18.41h48.73l.02-1.04c.02-.34.02-.68.02-1.01 0-10.94-3.61-20.81-10.21-27.88-6.24-6.7-14.88-10.38-24.3-10.38-11.13 0-20.68 4.65-27.6 13.47"/><path d="m583.3 47.97c9.17 0 13 6.73 13.15 22.98h-28.48c.38-9.02 3.94-22.98 15.33-22.98m-28.31 4.8c-6.23 7.94-9.65 17.96-9.65 28.22 0 21.34 16.51 37.44 38.4 37.44 13.73 0 23.8-5.21 33.68-17.43l.64-.79-4.97-4.56-.67.74c-3.64 4.03-11.16 10.78-20.56 10.78-14.21 0-23.08-14.09-23.53-27.54h48.72l.03-1.04c0-.34 0-.68 0-1.01 0-10.94-3.61-20.81-10.2-27.88-6.24-6.7-14.87-10.38-24.3-10.38-11.13 0-20.68 4.65-27.6 13.47"/><path d="m635.37 129.5v-.17c.05-3.16 1.7-6.02 4.81-8.52.89.14 23.09 4 23.09 4 12.62 1.72 13.37 3.15 13.37 6.05v.6c-.03 1.54-.58 2.84-1.69 3.97-3.13 3.16-10.61 4.78-21.07 4.59-8.47-.14-18.52-2.1-18.52-10.51m8.15-63.34c.08-4.87 1.53-11.45 5.34-15.33 2.11-2.14 4.72-3.21 7.73-3.15 2.65.05 4.92 1.08 6.74 3.07 3.89 4.23 5.18 11.91 5.09 17.69-.12 6.83-2.97 18.36-12.92 18.18-11.72-.22-12.03-17.08-11.98-20.47m25.99-24.17c-4.79-1.5-9.2-2.32-13.37-2.39-8.55-.16-20.5 2.52-28.34 10.49-4.66 4.72-7.08 10.51-7.2 17.17v.45c0 9.24 4.84 16.54 14.27 21.76-.43.22-1.09.53-1.09.53-5.76 2.83-12.93 6.35-13.06 14.4 0 .09-.02.2-.02.29 0 6.93 4.13 9.97 8.78 12.87-5.26 1.88-12.56 5.28-12.69 13.25v.22c0 10.18 11.99 16 33.79 16.4 39.71.73 45.9-14.81 46.06-24.14v-.36c0-8.39-4.9-14.43-14.2-17.51-4.85-1.55-15.91-2.89-24.8-3.97-5.96-.72-11.61-1.41-13.25-1.91-2.48-.92-2.83-2.04-2.83-2.92v-.05c.03-1.37 2.04-2.5 3.42-3.25 3.33.83 6.4 1.29 9.37 1.35 8.77.16 20.89-2.44 28.56-10.23 4.51-4.56 6.85-10.23 6.96-16.82v-.47c0-10.88-6.34-17.22-12.27-21.54.45-.43.89-.73 1.49-.71.67 0 1.76.52 2.91 1.06 1.8.85 3.84 1.8 6.02 1.84 5.42.1 10.08-4.42 10.16-9.85.05-2.59-.9-5.06-2.68-6.99-1.84-2.01-4.4-3.19-7-3.24-7.83-.14-15.06 6.95-19.01 14.27"/><path d="m782.97 96.06c0-13.6 11.72-18.21 22.03-19.63v23.02c-1.76 2.12-6.98 7.71-12.9 7.71s-9.13-4.14-9.13-11.1m-18.26-37.28c0 6.12 5.28 9.89 10.15 9.89s9.18-4.09 11.68-11.52l.18-.52c1.91-5.46 3.56-10.17 9.73-10.17 2.39 0 4.2.68 5.53 2.08 2.82 2.97 3.03 8.85 3.03 13.55v5.53c-14.37 2.42-45.8 8.14-45.8 30.58 0 12.68 8.34 20.25 22.31 20.25 9.17 0 16.7-2.76 24.27-8.75 3.36 5.52 8.57 8.75 14.56 8.75s13.13-3.94 16.92-9.58l.32-.47-1.58-4.25-.93.36c-1.07.42-2.29.86-3.28.86-3.51 0-3.76-2.51-3.88-6.6l-.04-.91v-32.37c0-6.67 0-14.22-7.03-20.3-6.43-5.45-18.43-5.87-21.95-5.87-27.06 0-34.2 12.75-34.2 19.48"/><path d="m879.31 50.56c12.69 0 14.06 18.31 14.06 26.17 0 3.21-.43 31.35-15.36 31.35-5.65 0-9.28-3.2-13.34-7.45v-41.76c3.08-3.86 8.04-8.31 14.64-8.31m-47.83-3.24v6.47l.9.11c7.67.97 9.25 5.7 9.39 13.56v59.48c-.42 11.41-4.01 11.41-8.55 11.41h-1.01v6.84h41.74v-6.84h-1.01c-4.11 0-8.14-.68-8.27-8.84v-18.35c5.05 3.6 11.58 7.26 19.42 7.26 11.22 0 32.17-11.97 32.17-40.79 0-19.1-9.59-38.35-31.01-38.35-7.55 0-14.88 3.21-20.59 8.64v-10.51s-33.19 9.88-33.19 9.88z"/><path d="m132.87 1.55-.07-.27h-24.76l-.08.28-1.97 8.48-.08.33.33.1 1.49.42.26.08.14-.23c1.77-2.85 4.71-6.3 8.67-7v23.65c0 2.74-.79 3.53-3.56 3.53h-.36v2.13h15.18v-2.13h-.36c-2.76 0-3.56-.79-3.56-3.53v-23.72c3.46.31 6.77 3.8 8.75 7.05l.14.23.26-.08 1.5-.42.34-.1-.09-.34-2.18-8.48z"/><path d="m157.75 28.61v-11.02c0-3.43-2.72-6.21-6.06-6.21-2.79 0-4.68 1.34-6.58 2.88v-13.87l-.45.14-8.69 2.59-.25.08v1.9l.31.04c2.09.26 2.51 1.57 2.55 3.72v19.04c-.11 3.13-1.07 3.13-2.31 3.13h-.35v2.04h11.78v-2.04h-.36c-1.11 0-2.19-.19-2.23-2.41v-11.45c.22-.11.43-.23.64-.36.94-.54 1.91-1.1 2.88-1.1 2.13 0 2.6 2.02 2.6 2.53v9.67c-.11 3.13-1.08 3.13-2.32 3.13h-.36v2.04h11.79v-2.04h-.36c-1.11 0-2.19-.19-2.23-2.41"/><path d="m166.14 20.32c.12-2.5 1.11-6.28 4.2-6.28 2.48 0 3.53 1.84 3.58 6.28zm13.72 7.98-.96-.89-.27-.25-.23.27c-1.01 1.11-3.09 2.97-5.68 2.97-3.9 0-6.34-3.85-6.49-7.55h13.59v-.35c.08-3.27-1.01-6.21-3.01-8.27-1.76-1.79-4.07-2.75-6.68-2.75-3.13 0-5.81 1.31-7.75 3.78-1.74 2.22-2.7 5.03-2.7 7.89 0 5.99 4.63 10.5 10.78 10.5 3.8 0 6.71-1.51 9.45-4.88l.21-.26s-.25-.23-.25-.23z"/></g></svg>