<?xml version="1.0" encoding="UTF-8"?>
<svg id="Layer_2" data-name="Layer 2" xmlns="http://www.w3.org/2000/svg" viewBox="0 0 1812.75 270.34">
  <defs>
    <style>
      .cls-1 {
        fill: #fff;
        stroke-width: 0px;
      }
    </style>
  </defs>
  <g id="Layer_1-2" data-name="Layer 1">
    <g>
      <path class="cls-1" d="m284.59,0c9.54,1.27,19.18,2.07,28.61,3.9,97.76,18.96,165.77,74.56,204.07,166.02,12.17,29.05,17.52,59.76,18.14,91.24.02.96-.13,1.93-.23,3.18h-81.7c-1.34-65.35-25.08-120.79-73.3-165.04-36.57-33.56-80.07-52.64-129.55-57.24-102.4-9.52-180.34,50.29-211.39,106.08C98.88,59.44,212.45,37.11,296.49,77.85c87.1,42.22,119.57,127.88,117.4,186.66h-88.96c-1.53-50.32-21.1-91.79-60.76-123.02-31.36-24.69-67.48-35.4-107.28-32.8C70.31,114.36,8.99,187.84,10.32,264.39H0c1.34-13.61,1.74-26.93,4.09-39.89C20.92,131.72,72.14,64.72,157.39,23.93,185.7,10.39,215.89,3.14,247.24.83c1.47-.11,2.92-.54,4.37-.83,10.99,0,21.99,0,32.98,0Z"/>
      <path class="cls-1" d="m1812.75,189.3h-129.48c5.54,15.55,14.64,26.24,30.07,31.01,16.31,5.04,38.83.5,55.9-20.72,12.26,10.06,24.52,20.13,37.38,30.68-2.32,2.83-4.35,5.58-6.66,8.07-16.03,17.31-36.25,26.6-59.29,30.14-25.81,3.97-50.68,1.21-72.97-13.23-31.72-20.54-45.28-50.65-43.97-87.74,1.6-45.39,31.91-81.79,76.54-90.15,34.4-6.44,65.77.17,89.7,28.07,13.18,15.36,19.22,33.86,21.77,53.65.23,1.78.66,3.54,1,5.31v24.91Zm-128.76-34.95h71.51c1.69-17.27-10.51-30.5-29.73-32.57-19.91-2.15-39.52,13.02-41.78,32.57Z"/>
      <path class="cls-1" d="m1046.01,266.74h-59.42V79h59.13c.17,2.27.34,4.65.46,6.19,9.97-2.99,19.74-7.12,29.91-8.72,18.45-2.9,36.9-1.45,54.55,5.27,22.09,8.41,32.47,26.08,36.28,48.07,1.89,10.9,2.81,22.08,2.94,33.15.37,33.2.14,66.4.13,99.6,0,1.29-.14,2.57-.23,4.11h-59.66c-.09-1.9-.25-3.81-.25-5.71-.02-31.71.08-63.41-.09-95.12-.03-6.1-.56-12.31-1.85-18.26-2.16-9.94-8.52-16.37-18.67-18.48-13.96-2.9-27.08-.93-39.2,6.94-2.97,1.93-4.11,4.1-4.1,7.69.13,38.84.08,77.69.08,116.53v6.48Z"/>
      <path class="cls-1" d="m888.03,78.91h59.84v187.67h-59.54c-.18-2.39-.36-4.78-.58-7.59-1.03.35-1.81.51-2.48.86-25.83,13.55-52.66,12.77-79.55,4.53-22.34-6.85-33.91-23.87-38.13-45.8-2.27-11.82-3.25-24.03-3.41-36.08-.45-33.2-.16-66.42-.15-99.63,0-1.16.11-2.31.18-3.83h59.47v5.75c0,31.22-.15,62.43.11,93.65.06,7.06.94,14.25,2.55,21.12,2.01,8.58,8.07,14.12,16.65,16.17,14.57,3.48,28.38,1.63,41.11-6.73,2.96-1.95,4.02-4.2,4.01-7.76-.13-38.85-.08-77.71-.08-116.56,0-1.8,0-3.59,0-5.78Z"/>
      <path class="cls-1" d="m283.95,264.38H45.85c1.55-41.64,18.31-75.07,53-97.7,40.94-26.7,84.15-27.99,126.46-3.51,38.22,22.11,56.74,56.84,58.64,101.21Z"/>
      <path class="cls-1" d="m1450.08,251.6c7.19-14.18,14.3-28.22,21.65-42.75,4.3,1.7,8.42,3.3,12.52,4.95,15.89,6.4,32.3,10.42,49.52,10.1,4.74-.09,9.57-1.1,14.14-2.45,3.97-1.18,6.87-4,7.09-8.66.23-4.78-2.63-7.67-6.59-8.92-9.96-3.14-20.17-5.49-30.12-8.67-12.15-3.89-24.6-7.29-36.1-12.66-40.86-19.08-36.18-75.54-3.79-95.12,14.44-8.73,30.13-12.02,46.69-12.18,26.3-.25,51.46,5.3,76.53,15.29-6.64,14.19-13.19,28.21-19.88,42.52-8.55-2.4-16.87-5.07-25.36-7.04-13.13-3.05-26.35-5.83-39.99-3.67-1.3.21-2.59.58-3.85.98-3.68,1.17-6.58,3.72-6.1,7.48.37,2.91,2.14,6.98,4.45,8.05,6.86,3.19,14.21,5.46,21.52,7.54,10.86,3.1,21.89,5.59,32.76,8.65,4.13,1.16,8.09,3.03,11.99,4.87,20.12,9.5,31.51,24.8,31.78,47.57.28,23.76-9.6,41.55-30.79,52.79-11.06,5.87-23.06,8.63-35.43,9.36-30.83,1.83-60.83-1.51-88.86-15.68-.89-.45-1.8-.86-2.68-1.33-.28-.15-.48-.44-1.1-1.03Z"/>
      <path class="cls-1" d="m576.87,251.93c7.39-14.59,14.56-28.74,21.65-42.73,10.35,3.6,20.08,7.45,30.1,10.37,13.01,3.79,26.36,5.57,39.97,3.74.66-.09,1.33-.14,1.98-.28,6.91-1.53,11.38-5.33,11.46-10.13.11-6.48-4.81-8.93-9.78-10.39-11.48-3.36-23.24-5.76-34.66-9.29-9.8-3.03-19.62-6.41-28.86-10.82-39.7-18.93-35.53-73.68-5.45-93.58,14.1-9.32,29.68-12.91,46.28-13.52,23.89-.87,56.03,5.23,78.97,15.38-6.57,14.02-13.13,28.03-19.84,42.36-8.4-2.35-16.53-5.24-24.91-6.81-11.07-2.08-22.32-3.32-33.54-4.5-3.21-.34-6.64.48-9.83,1.3-3.73.95-6.61,3.08-7.08,7.38-.46,4.19,1.39,7.28,4.96,8.95,4.34,2.03,8.86,3.83,13.47,5.09,12.66,3.45,25.48,6.35,38.12,9.91,5.4,1.52,10.65,3.81,15.71,6.28,19.52,9.57,30.15,25.04,30.36,47.01.22,21.72-8.14,38.99-27.09,50.53-12.08,7.36-25.48,10.66-39.39,11.46-30.31,1.75-59.86-1.37-87.5-15.18-1.47-.74-2.94-1.48-5.09-2.55Z"/>
      <path class="cls-1" d="m1266.83,266.75h-59.52V78.95h59.35v20.2c18.06-17.84,38.95-24.73,63.15-23.68v64.19c-7.27-.44-14.5-1.31-21.72-1.23-26.25.32-41.04,15.17-41.22,41.41-.18,26.88-.04,53.76-.04,80.65,0,1.95,0,3.9,0,6.25Z"/>
      <path class="cls-1" d="m1360.15,78.87h58.84v187.78h-58.84V78.87Z"/>
    </g>
  </g>
</svg>