<?xml version="1.0" encoding="UTF-8"?>
<svg id="Layer_2" data-name="Layer 2" xmlns="http://www.w3.org/2000/svg" viewBox="0 0 2777.66 980.42">
  <defs>
    <style>
      .cls-1 {
        fill: #fff;
      }
    </style>
  </defs>
  <g id="Layer_2-2" data-name="Layer 2">
    <g>
      <path class="cls-1" d="m310.28,843c-18.96,13.85-37.35,27.28-56.12,41-19.97-13.14-39.94-26.28-60.51-39.81,5.22-5.45,10.32-10.57,15.14-15.93,1.31-1.45,2.51-3.66,2.52-5.52.15-30.13.1-60.26.09-90.39,0-.64-.14-1.28-.25-2.23h-50.95c0,8.74-.1,17.35.02,25.94.21,15.11-4.11,28.9-14.26,39.94-8.61,9.37-18.48,17.65-28.27,25.84-5.24,4.38-11.5,7.53-16.74,10.87.54-8.47,1.44-16.65,1.52-24.83.22-23.14.06-46.28.18-69.41.02-3.38-.81-5.59-4.53-5.64-22.35-.3-42.3,4.9-55.98,24.44-.76,1.09-1.44,2.23-2.14,3.36-.61.98-1.19,1.97-2.32,3.85-2.84-7.92-4.73-15.02-3.73-22.76,4.17-32.23,23.96-53.43,56.12-59.92,3.91-.79,7.85-1.49,12.53-2.37,0-1.62,0-3.39,0-5.15,0-21.64.15-43.28-.12-64.92-.06-4.92,1.27-8.15,5.16-11.35,35.63-29.24,71.03-58.77,106.63-88.05,6.34-5.22,4.61-5.87,11.89-.07,14.71,11.72,29.3,23.58,43.95,35.38,1.28,1.03,2.59,2.02,4.25,3.31,18.77-15.04,37.44-30,56.77-45.49,20.67,16.68,41.32,33.35,61.31,49.49-2.64,7.28-5.31,13.69-7.21,20.31-.99,3.43-.85,7.25-.85,10.89-.04,74.74,0,149.48-.07,224.23-.01,11.07,2.49,21.15,10.41,29.24,2.28,2.33,5.2,4.06,7.94,5.89,2.95,1.96,6.2,1.87,8.84-.31,3.7-3.05,6.21-1.37,9.24,1.68-18.22,12.98-36.2,25.86-54.32,38.53-1.19.83-4,.9-5.13.07-21.79-15.99-37.89-34.97-37.03-64.41.81-27.94.17-55.93.17-83.89,0-1.48,0-2.96,0-4.84h-55.49c0,1.52,0,2.96,0,4.41.07,28.46.04,56.93.37,85.39.03,2.95,1.47,6.68,3.56,8.64,5.05,4.74,10.66,9.01,16.53,12.71,2.07,1.31,6.56,1.61,8.2.26,4.98-4.12,8.34-1.52,12.68,1.64Zm-20.88-288.2c-6.11,4.81-11.89,9.04-17.25,13.76-1.7,1.5-3.18,4.29-3.2,6.49-.19,32.61-.12,65.22-.08,97.83,0,1.25.29,2.5.41,3.52h56.44c.22-.74.4-1.06.4-1.37.03-27.78.08-55.57.01-83.35,0-1.33-.6-3.04-1.54-3.93-11.57-10.97-23.26-21.82-35.19-32.96Zm-78,121.83c0-31.97.01-63.38-.06-94.79,0-1.18-.48-2.76-1.32-3.47-9.34-7.95-18.79-15.76-28.42-23.78-6.27,5.19-12.43,9.98-18.17,15.23-1.67,1.53-2.97,4.39-2.98,6.65-.19,31.76-.13,63.51-.11,95.27,0,1.59.17,3.18.27,4.89h50.78Z"/>
      <path class="cls-1" d="m304.94,211.42c-8.22-6.34-16.71-11.74-23.8-18.58-17.95-17.32-29.37-38.58-31.49-63.5-3.5-41.1,20.06-73.06,61.26-85.78,28.64-8.85,57.64-8.62,86.4-2.32,30.19,6.61,59.89,15.45,89.99,22.53,16.8,3.95,33.87,7.07,51,9.16,19.05,2.33,36.77-1.74,50.72-16.38,7.43,14.07,2.43,39.02-10.53,53.59-10.84,12.19-24.1,17.81-51.46,21.71v215.55c28.02-12.94,49.34-33.1,69.25-56.55-.15,1.8-.02,2.72-.31,3.46-16.39,41.3-41.85,75.24-82.66,94.69-45.12,21.51-91.31,21.02-136.53-.16-24.57-11.51-43-30.47-56.63-53.95-14.92-25.68-22.75-53.37-23.76-83.06-.44-13.1,2.89-25.36,7.47-37.41.46-1.21.87-2.45,1.08-3.02Zm101.73,127.32c6.01-10.04,10.79-20.16,10.81-31.58.14-64.41.02-128.83.08-193.24,0-2.9-1.1-4.19-3.68-4.93-6.39-1.83-12.81-3.58-19.08-5.78-2.94-1.03-4.7-.38-6.32,1.97-7.15,10.39-15.15,20.31-21.34,31.24-13.38,23.6-22,48.89-21.61,76.41.36,25.56,5.45,50.27,16.07,73.61,9.77,21.49,23.89,39.45,45.08,52.29Zm67.56-212.17c0,1.64,0,3.12,0,4.6.02,45.93-.09,91.87.13,137.8.06,12.91-3.46,24.51-11.65,34.19-6.84,8.08-14.47,15.61-22.49,22.53-7.6,6.56-16.16,12.02-24.38,18.02.59.39.98.7,1.42.93,1.02.55,2.04,1.13,3.11,1.58,29.77,12.27,60.2,14.2,91.44,6.41,5.47-1.37,6.72-3.77,6.7-9.1-.25-68.4-.25-136.81-.31-205.21,0-2.12,0-4.24,0-6.1-14.83-1.9-29.13-3.74-43.97-5.65Zm-92.02-26.54c-1.9-.52-3.11-.98-4.35-1.16-17.73-2.61-35.46-3.53-53.07.74-14.12,3.42-26.56,9.78-35.02,22.13-14.17,20.68-11.99,55.03,4.85,73.63,3.45,3.81,8.02,6.61,12.58,10.28,18.27-40.76,44.36-74.51,75.01-105.62Z"/>
      <path class="cls-1" d="m1282.27,234.01c-14.55-2.59-27.46-4.98-40.41-7.05-1.3-.21-3.23,1.25-4.33,2.44-9.17,9.89-17.92,20.35-29.88,27.01-6.31,3.51-13.21,6.28-20.17,8.22-8.46,2.35-16.23.07-21.99-6.97-3.49-4.27-6.63-8.82-9.49-13.55,29.07,19.85,59.37.05,73.53-19.23-12.03-3.29-24.08-6.25-35.93-9.89-17.22-5.3-34.05-11.48-48.34-23.08-7.46-6.05-11.83-14.06-14.61-22.78-7.05-22.11-10.27-44.79-6.48-67.91,3.17-19.34,12.3-36.14,24.58-51.15,21.97-26.85,50.06-43.86,84.54-48.48,39.01-5.23,75.24,2.19,106.52,27.69,4,3.26,8.1,6.4,12.14,9.61,3.69,2.93,7.57,3.64,12.13,1.86,1.53-.6,3.64.29,6.23.58-37.96,36.79-65.03,79.53-91.17,124,9.03,1.72,17.98,2.54,26.34,5.24,11.96,3.86,18.3-.32,24.31-10.84,8.8-15.4,18.86-30.25,29.79-44.23,12.26-15.68,27.35-28.66,45.43-37.59,9.57-4.72,19.66-7.13,30.46-5.44,8.77,1.37,15.36,5.53,17.99,14.34,2.64,8.84-1.42,15.66-7.28,22.37-1.95-2.48-3.41-4.66-5.19-6.55-9.7-10.3-22.02-10.75-34.75-8.72-18.05,2.89-31.49,13.54-41.87,27.63-11.92,16.19-22.58,33.29-33.77,50.01-.35.52-.44,1.2-.72,2,7.2,2.35,14.35,4.34,21.23,7.02,12.85,5.02,24.32,12.32,33.9,22.36,18.61,19.53,22.52,41.68,12.5,66.74-6.96,17.41-16.07,33.59-26.4,49.13-15.4,23.18-32.07,45.39-50.7,66.1-.99,1.11-2.04,2.17-3.35,3.55-8.07-4.66-15.98-9.46-24.1-13.89-23.42-12.77-47.75-23.42-73.24-31.44-4.19-1.32-6.12-.08-8.64,3.01-18.46,22.65-38.6,43.66-62.7,60.44-19.5,13.58-40.63,22.91-65.11,21.5-13.54-.78-25.89-4.71-34.86-15.74-8.93-10.98-9.7-23.83-7.57-36.97,4.9-30.3,23.01-51.41,48.36-66.92,34.91-21.36,73.36-29.01,113.81-27.44,13.26.52,26.46,2.62,39.7,3.82,1.55.14,3.95-.28,4.71-1.33,11.5-16.06,22.8-32.27,34.87-49.48Zm27.52-134.8c-5.48-8.53-15.77-17.73-26.78-23.88-27.39-15.32-56.77-21.46-87.99-18.61-11.95,1.09-23.73,2.92-34.8,8.16-20.15,9.56-27.39,35.98-9.32,52.51,5.49,5.02,11.3,9.91,17.66,13.7,30.04,17.92,62.97,27.41,97.44,31.96,1.24.16,3.25-.77,3.93-1.83,13.39-20.65,26.64-41.39,39.85-62.01Zm-103.18,240.53c-1.75-.71-2.49-1.12-3.28-1.31-34.89-8.44-69.58-8.4-103.88,2.88-15.78,5.19-30.86,11.89-41.55,25.35-7.85,9.88-10.65,21.15-6.1,33.24,4.32,11.48,14.05,16.22,25.42,18.34,12.49,2.33,24.58.26,36.33-3.76,39.78-13.6,66.35-43.61,93.07-74.75Zm47.19-51.63c35.24,9.84,67.34,24.78,97.91,45.96,3.66-7.6,7.61-14.51,10.4-21.87,6.58-17.38,2.59-32.66-10.54-45.63-16.69-16.49-37.63-24.6-59.9-29.91-1.13-.27-3.21.78-3.94,1.83-11.25,16.26-22.35,32.63-33.93,49.61Z"/>
      <path class="cls-1" d="m1563.35,481.99c-12.3-15.25-28.58-18.2-46.57-16.23-18.36,2.02-36.71,4.18-55.11,5.82-13.58,1.2-27.15,2.19-40.22-3.89-18.3-8.51-28.53-26.56-26.08-46.66,2.84-23.41,14.32-39.94,37-48.11,1.32-.47,2.59-3.17,2.61-4.84.18-21.47.12-42.95.12-64.42,0-35.79-.32-71.59.15-107.37.2-15.33-7.64-25.91-17.45-36.26-3.65,2.24-7.01,4.3-10.64,6.53-.85-1.41-1.57-2.61-2.51-4.17,10.69-6.98,21.09-13.82,31.54-20.58,5.84-3.77,11.75-10.2,17.69-10.28,5.71-.07,11.51,6.48,17.24,10.18,5.73,3.7,11.27,7.73,17.2,11.08,3.59,2.03,4.55,4.55,4.5,8.43-.2,15.48-.15,30.96-.15,46.44,0,52.11.03,104.21.05,156.32,0,2.48,0,4.97,0,7.36,17.1,4.14,38.96-4.7,38.73-27.68-.57-55.26-.21-110.53-.11-165.8,0-3.46-.81-5.9-3.7-8.01-4.01-2.94-7.67-6.35-11.93-9.94,4.83-3.19,9.34-6.19,13.86-9.16,9.18-6.03,18.43-11.95,27.51-18.12,2.46-1.67,4.22-1.6,6.6.05,6.15,4.26,12.55,8.19,18.71,12.43,2.25,1.55,4,1.68,6.26.05,3.37-2.42,6.97-4.5,10.87-6.98,1.34,2.03,2.59,3.91,4.17,6.3-2.6,1.74-4.85,3.77-7.48,4.9-6.13,2.63-7.33,7.04-7.29,13.4.28,51.1-.57,102.22.43,153.31.55,28.39-12.41,47.33-35.45,61.24-15.32,9.25-31.96,13.2-49.73,11.39-17.86-1.82-35.66-4.25-53.5-6.31-12.43-1.44-22.76,2.99-30.4,12.58-6.75,8.48-4.44,18.55,5.42,23.29,4.24,2.04,9.67,2.86,14.39,2.42,24.69-2.33,49.28-5.73,73.99-7.76,14.84-1.22,29.67.16,42.76,8.71,20.25,13.23,22.69,44.28,6.53,60.35Z"/>
      <path class="cls-1" d="m2306.44,480.87c-1.48-1.25-2.42-1.91-3.19-2.73-10.02-10.77-22.65-15.06-36.98-13.9-17.91,1.44-35.74,3.8-53.65,5.23-11.58.92-23.43,2.36-34.84.95-25.34-3.13-47.94-24.96-38.58-60.52,4.74-17.99,15.94-30.01,33.24-36.28,3.88-1.41,4.91-3.2,4.9-7.12-.15-56.76-.41-113.53.04-170.29.13-15.66-7.13-26.78-17.57-37.43-3.62,2.25-7.08,4.4-10.78,6.71-.85-1.44-1.58-2.67-2.53-4.27,12.59-8.21,25.48-15.61,37.16-24.57,8.73-6.69,15.47-7.37,24,0,6.49,5.61,14.14,9.98,21.67,14.21,4.49,2.53,5.45,5.64,5.44,10.41-.12,67.75-.05,135.5-.03,203.25,0,1.95,0,3.9,0,5.72,16.3,3.97,33.14-4.13,37.24-17.78.99-3.29,1.4-6.87,1.4-10.32.09-55.43.11-110.86-.05-166.3,0-2.23-1.51-4.94-3.16-6.58-3.74-3.72-8.01-6.9-12.5-10.67,15.07-9.88,29.79-19.52,44.66-29.27,6.92,4.52,13.85,8.81,20.5,13.5,3.26,2.3,5.84,2.95,9.2.2,2.92-2.38,6.37-4.12,9.96-6.39,1.42,2.21,2.65,4.1,4.11,6.36-3.73,2.43-7.05,4.94-10.68,6.86-3.44,1.82-4.31,4.28-4.3,8.04.12,52.43-.57,104.88.32,157.3.48,28.61-13.06,47.31-36.22,61.35-18.86,11.43-39.33,12.52-60.35,10.12-14.37-1.64-28.69-3.82-43-5.98-11.49-1.74-21.08,1.9-28.96,10.01-10.04,10.34-5.52,25.37,8.69,28.17,5.24,1.03,10.92.51,16.32-.04,22.68-2.33,45.3-5.44,68.02-7.26,14.68-1.17,29.39.15,42.36,8.5,18.91,12.17,23.65,40.42,9.88,58.16-.6.78-1.1,1.63-1.76,2.62Z"/>
      <path class="cls-1" d="m698.74,183.02c-4.46,2.88-8.76,5.42-12.74,8.39-1.17.88-2,3-2,4.56-.1,51.61-.11,103.22.03,154.83,0,1.81,1.32,4.03,2.7,5.34,3.85,3.66,8.06,6.93,12.61,10.77-6.62,4.3-12.98,8.42-19.33,12.55-7.39,4.81-14.72,9.73-22.24,14.33-1.34.82-3.96,1.09-5.17.32-14.04-8.93-27.91-18.11-42.33-27.56,4.44-3.71,8.8-7,12.69-10.78,1.56-1.52,2.95-4.11,2.95-6.21.14-87.07.17-174.14.04-261.22-.01-8.13-1.03-16.27-1.74-24.39-.69-7.93-3.87-14.46-11.4-18.07-3.01-1.44-3.03-3.23-1.85-5.97,4.32-10.02,14.24-15.16,25.89-12.98,4.38.82,8.68,2.09,13.43,3.26,5.19-10.54,12.34-19.52,24.72-22.44,7.14-1.68,13.85-.09,20.19,4.18-10.56,15-11.12,32.36-11.23,49.63-.25,38.62-.07,77.25-.05,115.87,0,1.15.15,2.3.29,4.25,1.89-1.18,3.39-2.08,4.85-3.03,17.01-11.12,34.06-22.16,50.96-33.44,3.07-2.05,5.2-2.29,8.35-.11,7.79,5.41,15.98,10.26,23.82,15.59,2.52,1.71,4.3,1.58,6.63-.1,3.21-2.32,6.66-4.32,10.44-6.73,1.43,2.13,2.7,4.02,4.33,6.45-3.89,2.48-7.82,4.63-11.28,7.37-1.53,1.21-3,3.61-3.01,5.47-.16,55.27-.1,110.54-.14,165.82,0,9.89,4.12,17.98,10.36,25.25,1.51,1.76,3.06,3.48,4.94,5.63-9.36,6.48-18.51,12.77-27.6,19.14-12.96,9.09-25.88,18.22-34.87,31.71-6.15,9.22-9.65,19.3-10.41,30.32-.44,6.31,3.2,11.34,9.7,14.25,9.37,4.19,19.14,3.12,30.62,2.14-2.66,3.33-4.2,6.03-6.43,7.93-9.4,8.04-23.26,8.95-33,2.46-9.46-6.32-13.98-19.78-10.05-31.56,5.75-17.22,16.16-31.6,28.38-44.77,1.21-1.31,2.89-2.19,5.46-4.08-5.62-5.18-10.52-9.19-14.82-13.77-7.71-8.2-11.22-17.79-11.11-29.43.43-47.11.16-94.23.28-141.34.01-4.07-.92-7.21-3.87-10.21-6.16-6.27-11.91-12.95-17.98-19.64Z"/>
      <path class="cls-1" d="m1852.9,658.15c0,12.12.34,23.08-.08,34.01-.62,16.11-1.53,32.23-2.81,48.3-.99,12.4-6.07,23.37-15.45,31.54-10.75,9.37-22.2,17.93-33.44,26.73-1.88,1.47-4.21,2.35-5.68,3.15.56-7.12,1.56-14.14,1.59-21.17.17-57.44,0-114.87.32-172.31.07-11.77,1.16-23.62,2.9-35.26,3.45-23.12,15.23-41.64,33.57-55.96,19.03-14.85,39.37-27.33,63.08-33.36,24.29-6.18,54.49,4.38,68.36,23.68,2.59,3.61,2.99,5.74-1.23,8.63-14.97,10.24-29.64,20.93-44.42,31.44-.67.48-1.39.9-2.18,1.41-5.99-6.53-11.69-13.26-17.96-19.4-5.21-5.09-10.96-9.67-16.74-14.14-6.41-4.96-13.76-6.33-21.74-4.74-5.03,1-7.54,3.54-7.99,8.67-.12,1.32-.06,2.66-.06,3.99,0,39.12.01,78.25.02,117.37,0,1.61,0,3.23,0,5.99,18.66-11.64,36.49-22.76,54.9-34.25,13.82,13.98,27.55,27.79,41.12,41.75,1.08,1.12,1.5,3.29,1.51,4.98.08,45.45.16,90.9.04,136.35-.08,27.43-11.38,50.6-28.09,71.56-14.03,17.59-30.88,32.11-49.22,44.99-2.16,1.52-4.35,3-7.28,5.02,14.3,4.59,28.23,6.33,42.24,6.14,14.09-.19,28.16-1.74,42.72-2.74-1.27,1.78-2.66,3.84-4.17,5.82-11.76,15.47-25.31,28.72-44.25,35.13-10.46,3.54-21.35,4.99-31.92,1.64-17.94-5.67-35.88-9.91-55.16-7.17,4.2-3.68,8.45-7.31,12.58-11.06,20.09-18.24,38.34-38.01,50.17-62.8,8.94-18.74,13.6-38.6,13.66-59.37.13-44.12,0-88.24.09-132.35,0-3.16-.83-5.14-3.5-6.99-11.6-8.05-23.03-16.35-35.5-25.25Z"/>
      <path class="cls-1" d="m1342.42,880.07c-8.77-7.98-18.07-14.9-25.46-23.48-13.37-15.52-18.29-34.75-18.63-54.72-.63-36.95-.29-73.91-.2-110.87.01-5.44.3-10.7-5.89-14.64,43.02-13.45,84.3-28.49,123.46-49.25,10.97,9.96,22.16,19.91,33.07,30.16,2.84,2.67,4.93,3.12,8.01.69,2.73-2.14,5.83-3.8,9.26-5.99,1.39,2.17,2.7,4.2,4.15,6.46-2.73,1.79-5.05,3.82-7.75,4.97-5.81,2.49-6.87,6.73-6.84,12.65.24,45.78.31,91.57,0,137.36-.07,10.57,2.99,19.54,9.14,27.82,3.97,5.34,7.89,10.72,11.56,16.26,4.97,7.52,5.56,15.67.28,22.96-7.79,10.74-15.74,21.52-24.85,31.11-22.29,23.47-47.1,44.11-73.51,62.88-7.71,5.48-13.72,6.3-22.06.58-13.46-9.23-28.35-16.03-44.57-19.45-16.55-3.5-32.41-1.52-47.73,5.49-2.82,1.29-5.75,2.37-8.66,3.55-2.83-9.04-2.74-9.43,3.6-14.72,27.1-22.61,54.21-45.22,81.31-67.83,1.01-.84,1.99-1.73,2.3-2Zm56.64-113.08c0-20.62.11-41.25-.14-61.86-.03-2.42-1.4-5.46-3.17-7.12-10.79-10.13-21.86-19.95-32.86-29.86-1.77-1.59-3.13-3.54-6.33-1.97-3.02,1.48-3.38,3.43-3.37,6.3.08,39.25.51,78.5-.1,117.74-.32,20.16,9.43,34.46,23.59,46.68,8.61,7.43,8.85,6.85,17.73-.03,3.5-2.71,4.81-5.58,4.76-10.01-.24-19.95-.1-39.91-.09-59.87Zm14.01,171.94c13.1-12,17.37-25.95,14.33-42.57-2.52-13.79-10.88-24.04-19.39-34.31-3.9-4.71-7.99-9.28-12.09-14.03-27,22.46-52.43,43.61-78.08,64.94,1.24,2.42,2.34,4.56,3.94,7.66,34.21-12.97,63.23.59,91.3,18.32Z"/>
      <path class="cls-1" d="m1615.14,356.47c-1.49-2.4-2.69-4.34-3.93-6.35.78-.63,1.22-1.21,1.8-1.43,10.77-4,12.36-11.99,12.19-22.68-.66-40.44-.21-80.89-.3-121.34-.02-11.08-.45-22.16-.71-33.8,17.04-5.4,33.76-13.69,49.13-25.95-6.36-5.91-12.51-11.62-18.67-17.33-9.27-8.6-18.6-17.15-27.77-25.86-1.31-1.24-2.68-3.23-2.69-4.88-.17-23.13-.12-46.26-.12-70.74,49,45.77,97.27,90.86,145.84,136.23,4.45-2.8,8.76-5.51,13.5-8.5,1.41,2.15,2.64,4.03,4.16,6.35-3.66,2.41-6.93,5-10.58,6.84-3.58,1.8-4.18,4.33-4.19,8-.06,53.93-.32,107.85-.38,161.78,0,4.13-.9,5.92-5.41,6.88-31.31,6.62-59.92,19.85-86.9,36.75-3.74,2.35-6.22,2.56-9.91-.3-12.63-9.78-25.68-19.02-38.41-28.68-2.93-2.22-5.18-2.88-8.24-.39-2.43,1.98-5.29,3.42-8.42,5.4Zm101.04-8.52v-8.26c0-47.08-.31-94.16.25-141.23.12-10.01-2.08-17.28-10.14-23.44-7.05-5.4-13.14-12.06-20.75-19.18-1.53,3.18-3.6,5.47-3.61,7.77-.19,52.4-.16,104.8-.08,157.2,0,1.47.5,3.58,1.54,4.32,10.51,7.51,21.18,14.79,32.79,22.82Z"/>
      <path class="cls-1" d="m2605.63,848.49c-1.48-2.28-2.64-4.07-4.12-6.35,3.76-2.47,7.61-4.67,11.03-7.39,1.43-1.13,2.79-3.38,2.8-5.13.15-51.59.15-103.18.04-154.77,0-3.92-1.07-7.84-1.7-12.18,18.1-5.74,34.97-14,50.15-26.32-11.96-11.08-23.04-22.72-35.54-32.54-10.84-8.52-15.09-18.02-13.99-31.79,1.26-15.88.28-31.93.28-47.91,0-1.76,0-3.52,0-6.58,49.16,45.92,97.37,90.95,145.82,136.2,4.34-2.7,8.53-5.3,13.11-8.14,1.38,2.1,2.62,3.99,4.16,6.33-3.47,2.27-6.63,4.67-10.09,6.51-3.19,1.7-4.25,3.87-4.25,7.51-.04,53.92-.31,107.84-.29,161.75,0,4.97-1.47,6.65-6.33,7.69-31.12,6.67-59.55,19.9-86.35,36.73-3.77,2.37-6.11,2.13-9.5-.46-12.69-9.69-25.69-18.99-38.42-28.63-2.81-2.13-4.95-2.57-7.83-.29-2.58,2.05-5.56,3.59-8.98,5.75Zm71.92-199.8c-4.4,1.35-5.29,4.06-5.28,7.84.11,51.73.11,103.45.03,155.18,0,3.06,1.08,4.82,3.51,6.46,9.24,6.23,18.36,12.65,27.54,18.96.88.6,1.91.97,2.92,1.47.18-.51.27-.66.27-.81.06-53.05.12-106.11.1-159.16,0-1.33-.59-3.04-1.52-3.93-9.11-8.74-18.35-17.34-27.57-26.01Z"/>
      <path class="cls-1" d="m868.15,854.18c-14.56,9.44-28.5,18.52-42.51,27.48-.88.56-2.69.74-3.49.22-14.2-9.23-28.31-18.59-42.95-28.27,4.49-3.75,8.69-6.95,12.49-10.58,1.49-1.42,2.94-3.78,2.94-5.72.16-46.62.35-93.24-.03-139.85-.1-12.29-8.38-21.29-15.38-30.87-3.33,2.01-6.28,3.79-9.28,5.6-2.27-1.74-3.52-3.13-.32-5.22,18.27-11.89,36.47-23.88,54.63-35.8,13.91,9.41,22.85,22.28,28.32,38.19,13.93-9.11,27.28-17.84,40.64-26.57,5.57-3.64,11.25-7.13,16.66-10.99,2.55-1.82,4.33-1.96,6.99-.07,7.46,5.3,15.23,10.15,22.77,15.34,2.48,1.7,4.46,2.18,7.08.18,3.02-2.31,6.41-4.12,9.93-6.33,1.37,2.09,2.61,3.99,4.16,6.35-3.82,2.48-7.59,4.56-10.88,7.23-1.54,1.25-3.06,3.63-3.07,5.51-.16,60.1-.09,120.2-.19,180.31-.01,6.06,5.68,6.74,7.83,10.21,4.77-.43,7.27-7.12,12.24-4.77l.73,1.95c-17.76,11.64-35.52,23.28-53.42,35.01-15.1-11.71-25.26-25.17-24.94-45.71.72-45.77.26-91.57.05-137.35-.01-2.79-1.41-6.09-3.23-8.27-5.73-6.89-11.97-13.36-18.28-20.28-4.61,2.96-9.17,5.67-13.43,8.78-1.06.77-1.66,2.82-1.66,4.28-.05,51.11-.03,102.22.13,153.33,0,1.83,1.18,4.09,2.54,5.4,3.92,3.8,8.22,7.22,12.92,11.27Z"/>
      <path class="cls-1" d="m1979.81,350.7c2.84-1.85,6.03-3.92,9.44-6.14.87,1.14,1.62,2.13,2.53,3.31-17.95,11.72-35.62,23.27-53.62,35.03-13.72-11.37-24.89-23.39-24.64-43.19.59-45.93.13-91.88.27-137.82.01-4.6-.95-8.14-4.34-11.51-6.01-5.96-11.49-12.47-17.61-19.2-4.55,2.97-9.17,5.82-13.56,8.99-.92.67-1.37,2.54-1.37,3.85-.06,51.43-.06,102.86.06,154.3,0,1.54,1.03,3.45,2.19,4.54,3.99,3.75,8.26,7.22,12.73,11.06-.93.84-1.64,1.69-2.53,2.27-12.82,8.35-25.63,16.72-38.57,24.89-1.31.83-3.93,1.16-5.1.41-13.99-8.97-27.83-18.2-42.26-27.72,4.45-3.73,8.75-7.02,12.63-10.75,1.46-1.4,2.75-3.8,2.75-5.75.15-46.44.26-92.88.01-139.32-.07-12.44-8.53-21.22-15.16-31.2-3.41,1.98-6.38,3.7-9.78,5.68-.77-1.06-1.58-2.16-2.63-3.6,19.22-12.62,38.11-25.03,57.18-37.56,13.77,9.33,22.71,22.2,28.35,38.18,6.18-4,11.84-7.64,17.47-11.33,13.37-8.76,26.76-17.47,40.03-26.37,2.47-1.65,4.17-1.64,6.62.06,7.64,5.33,15.53,10.3,23.22,15.58,2.34,1.6,4.17,2.01,6.62.16,3.04-2.29,6.41-4.15,10.18-6.54,1.4,2.02,2.74,3.96,4.3,6.22-1.79,1.24-3.14,2.57-4.76,3.21-8.38,3.28-9.9,9.4-9.84,17.97.42,55.42.39,110.85.05,166.28-.05,7.6,1.94,12.74,9.12,16.01Z"/>
      <path class="cls-1" d="m1139.84,631.21c14.13,9.38,22.81,22.47,28.48,38.12,18.6-12.19,36.82-23.86,54.68-36.03,4.59-3.13,7.68-3.33,12.1.08,6.44,4.97,13.55,9.06,20.22,13.74,2.57,1.8,4.55,1.88,7.08-.01,3.04-2.28,6.4-4.14,10.08-6.47,1.35,2.02,2.59,3.89,4.27,6.39-3.74,2.41-7.22,4.84-10.89,6.96-2.56,1.49-3.66,3.26-3.65,6.37.09,59.92.12,119.84,0,179.76-.01,6.31,5.87,6.9,8,10.39,4.75-.72,7.33-7,12.16-4.67l.65,1.94c-17.77,11.64-35.54,23.28-54.32,35.58-5.96-6.75-12.26-13.14-17.64-20.22-4.86-6.4-6.03-14.21-6.02-22.25.08-46.94-.01-93.87.1-140.81,0-3.61-.94-6.27-3.42-8.86-6.19-6.47-12.12-13.18-18.46-20.13-4.65,3-9.25,5.65-13.42,8.87-1.19.92-1.58,3.47-1.58,5.27-.07,36.78-.04,73.57-.03,110.35,0,13.81-.11,27.63.15,41.44.04,2.12,1.36,4.66,2.9,6.21,3.73,3.75,7.93,7.03,12.46,10.94-8.97,5.83-17.55,11.4-26.13,16.97-5.16,3.35-10.27,6.79-15.53,9.98-1.18.72-3.38,1.27-4.31.67-14.23-9.17-28.33-18.54-42.92-28.17,4.5-3.76,8.71-6.97,12.5-10.61,1.48-1.41,2.86-3.8,2.86-5.74.16-46.6.29-93.21,0-139.81-.08-12.41-8.57-21.19-15.04-30.68-3.73,1.86-6.9,3.51-10.18,4.91-.25.11-1.29-1.62-2.3-2.95,19.28-12.66,38.27-25.13,57.15-37.53Z"/>
      <path class="cls-1" d="m593.91,650.42c1.46,2.24,2.7,4.13,4.19,6.41-3.59,2.31-6.8,4.67-10.28,6.52-3.08,1.64-3.94,3.87-3.94,7.24-.08,55.91-.28,111.83-.45,167.74,0,1.98,0,3.96,0,5.95-8.91,2.44-17.62,4.53-26.14,7.21-23.79,7.49-45.99,18.45-67.01,31.77-3.17,2.01-5.2,1.96-8.2-.31-12.98-9.86-26.24-19.36-39.25-29.18-2.54-1.92-4.42-2.16-6.99-.27-3.06,2.26-6.4,4.14-9.89,6.35-1.39-2.12-2.63-4.02-4.18-6.39,3.86-2.51,7.63-4.59,10.92-7.26,1.54-1.25,3.06-3.63,3.06-5.51.17-51.59.18-103.18.09-154.77,0-3.93-.98-7.85-1.58-12.33,3.86-1.02,7.85-1.92,11.75-3.11,34.01-10.33,66.85-23.46,97.73-41.17,2.58-1.48,4.01-1.05,5.97.78,8.63,8.06,17.55,15.82,26.01,24.06,3.69,3.6,6.67,4.75,10.83.98,2.03-1.84,4.67-3.02,7.37-4.71Zm-66.9,198.55c.23-1.23.34-1.55.34-1.87.02-49.44.05-98.88-.07-148.33,0-1.88-1.15-4.13-2.46-5.58-8.33-9.3-16.81-18.46-25.38-27.54-1.02-1.08-3.59-2.33-4.18-1.88-1.26.98-2.34,3.01-2.37,4.64-.22,9.32-.12,18.64-.12,27.96,0,41.45-.02,82.9.08,124.35,0,1.93.52,4.71,1.83,5.67,10.46,7.6,21.18,14.86,32.34,22.58Z"/>
      <path class="cls-1" d="m2332.52,747.37c-16.39-18.71-12.82-37.84-1.8-57.57-9.91-10.96-19.92-22.02-30.19-33.38,14.71-11.52,29.21-22.87,44.03-34.48,11.24,10.82,22.37,21.53,33.83,32.57,15.1-11.73,30.03-23.32,45.31-35.18,7.54,6.97,14.95,13.62,22.11,20.54,2.89,2.8,5.26,3.93,8.76.93,2.5-2.15,5.55-3.65,8.78-5.71,1.4,2.05,2.75,4.04,4.29,6.3-1.59,1.07-2.83,2.23-4.3,2.85-8.57,3.6-10.84,9.69-10.75,19.04.54,52.61.3,105.23.21,157.84-.01,6.48,1.73,12.03,6.29,17.1,4.18-2.59,8.24-5.09,12.68-7.84,1.1,1.56,2.11,2.99,3.11,4.4-20.1,13.33-39.95,26.49-60.31,40-11.01-13.91-21.37-28.4-22.03-48.38-1.94,1.04-3.48,1.77-4.92,2.66-22.96,14.14-45.98,28.19-68.79,42.58-3.97,2.51-6.72,2.11-10.17-.43-15.73-11.6-23.57-27.71-28.05-46.27-7.84-32.47,20.59-65.95,43.43-74.26,2.63-.96,5.23-2.03,8.5-3.3Zm59.04,10.81c0-27.07.02-53.16-.06-79.26,0-1.19-.6-2.64-1.41-3.51-3.63-3.85-7.45-7.54-11.13-11.22-17.9,6.83-34.16,20.63-42.31,35.81-8.33,15.51-6.1,31.4,6.13,43.96,13.44,13.79,30.76,13.82,48.78,14.22Zm.13,10.98c-2.64-.18-3.93-.31-5.22-.36-15.76-.6-31.12-2.41-44.65-11.8-1.77-1.23-5.66-.94-7.79.15-6.61,3.38-10.79,9.17-11.14,16.62-.33,7.06-.27,14.33,1.02,21.24,3.19,17.04,11.6,30.97,26.77,40.24,2.25,1.37,4.17,2,6.81.32,10.5-6.7,21.21-13.08,31.76-19.71,1.08-.68,2.33-2.16,2.34-3.28.16-14.41.1-28.81.1-43.43Z"/>
      <path class="cls-1" d="m2578.14,486.35c-10.08,12.91-12.07,26.31-12.12,39.84-.33,100.72-.39,201.43-.39,302.15,0,1.97,1.59,4.03,2.72,5.87.67,1.09,1.91,1.83,2.91,2.72,6.05,5.38,5.99,5.28,13.09.86,1.85-1.16,4.48-4.84,6.36.76-13.29,8.53-26.57,17.06-39.85,25.58-3.78,2.43-7.46,5.08-11.43,7.13-1.51.78-4.25.96-5.56.1-13.34-8.8-26.5-17.86-40.31-27.26,3.91-3.62,7.78-6.9,11.24-10.57,1.42-1.5,2.76-3.84,2.77-5.8.12-91.06.13-182.13,0-273.19,0-6.63-1.13-13.25-1.67-19.88-.64-7.89-4.13-13.96-11.31-17.56-2.9-1.45-3.22-3.18-1.88-5.98,3.75-7.86,9.58-12.85,18.48-13.06,4.43-.1,9.3-.11,13.24,1.55,5.49,2.32,8.54.35,11.88-3.41,6.59-7.41,14.31-13.35,24.75-13.11,5.27.12,10.5,1.94,17.09,3.25Z"/>
      <path class="cls-1" d="m907.05,141.95c14.96,27.5,29.66,54.51,44.59,81.95-1.6,1.13-3.02,2.19-4.49,3.17-23.29,15.46-46.57,30.96-69.93,46.31-2.76,1.81-4.06,3.63-4.03,7.14.19,20.8.15,41.6.02,62.4-.02,2.98.83,4.82,3.32,6.54,8.5,5.84,16.93,11.79,25.14,18.02,2.78,2.11,4.72,2.1,7.43.13,3.22-2.34,6.7-4.35,10.24-6.18,1.05-.54,2.67.03,4.02.1.05.54.1,1.08.15,1.62-8.52,5.45-17.04,10.91-25.57,16.36-8.13,5.2-16.32,10.3-24.37,15.62-2.27,1.5-3.96,1.5-6.26.07-15.25-9.48-30.67-18.7-45.83-28.33-3.18-2.02-5.36-2.37-8.28.03-2.14,1.76-4.72,3-7.43,4.67-1.39-2.17-2.61-4.06-4.11-6.39,2.52-1.64,4.58-3.35,6.93-4.43,4.26-1.95,5.17-5.09,5.16-9.55-.15-47.59-.05-95.18-.18-142.76-.01-3.8,1.17-5.93,4.36-8,29.56-19.25,59-38.68,89.11-58.48Zm-33.45,38.18v85.41c12.38-8.24,24.2-16.1,36.19-24.08-12.06-20.45-23.79-40.32-36.19-61.33Z"/>
      <path class="cls-1" d="m2074.96,847.66c5.72-3.25,11.02-6.3,16.42-9.19.28-.15,1.37,1.2,2.6,2.32-5.01,3.2-9.7,6.21-14.4,9.21-11.92,7.6-23.89,15.14-35.74,22.85-2.39,1.55-4.16,1.73-6.67.16-15.52-9.69-31.21-19.12-46.7-28.85-2.67-1.68-4.56-1.85-7.08,0-3.05,2.25-6.37,4.12-9.86,6.34-1.45-2.25-2.69-4.16-4.09-6.33,1.59-1.11,2.81-2.36,4.29-2.93,8.82-3.38,10.38-9.8,10.29-18.75-.49-45.43-.17-90.86-.31-136.3-.01-3.82,1.21-5.9,4.37-7.95,28.05-18.24,55.98-36.67,83.94-55.03,1.51-.99,3.08-1.91,5.12-3.17,14.88,27.29,29.65,54.38,44.66,81.93-9.19,6.1-18.15,12.06-27.12,18.01-15.82,10.49-31.59,21.04-47.5,31.38-2.86,1.86-3.92,3.88-3.9,7.27.15,20.64.14,41.27.03,61.91-.02,3.13.8,5.19,3.49,7.03,9.45,6.51,18.7,13.29,28.18,20.07Zm4.92-128.23c-11.91-20.17-23.66-40.08-35.41-59.99-.31.11-.63.22-.94.33v83.76c12.46-8.26,24.29-16.1,36.36-24.1Z"/>
      <path class="cls-1" d="m658.69,882.26c-15.08-11.61-29.94-23.04-45.16-34.76,4.71-3.89,9.11-7.18,13.06-10.95,1.59-1.51,3.1-4.05,3.11-6.12.17-49.27.12-98.53.14-147.8,0-8.56-5.57-13.62-11.75-17.95-1.11-.78-4.41.91-6.32,2.06-2.52,1.52-4.2,1.98-5.05-1.72,17.97-11.82,36.01-23.69,54.17-35.64,13.68,9.55,22.66,22.44,28.79,37.97,15.94-10.39,31.38-20.45,47.21-30.76,8.96,12.6,17.8,25.03,26.7,37.54-8.43,6.8-16.8,13.1-24.63,20.02-5.7,5.05-11.27,10.46-15.85,16.51-10.36,13.69-8.33,21.51,6.64,29.09-5.35,3.56-11.53,4-15.52,1.1-4.59-3.34-7.59-10.36-5.36-15.99,2.6-6.55,6.38-12.67,9.96-18.79,1.24-2.12,1.82-3.48.06-5.64-6.83-8.38-13.45-16.93-20.47-25.81-2.88,1.77-5.88,3.22-8.37,5.3-1.11.93-1.67,3.1-1.68,4.7-.09,48.6-.1,97.2.04,145.8,0,2,1.07,4.49,2.49,5.89,3.16,3.11,6.68,7.56,10.39,7.9,3.34.31,7.12-4.12,11.12-6.73,1.39,1.88,2.73,3.7,4.27,5.8-19.33,13-38.48,25.87-57.99,38.99Z"/>
      <path class="cls-1" d="m2106.01,129.08c14.98,27.54,29.68,54.56,44.59,81.98-9.48,6.28-18.76,12.42-28.03,18.57-15.69,10.4-31.33,20.86-47.09,31.14-2.53,1.65-3.53,3.39-3.51,6.43.13,20.98-.02,41.96.21,62.94.02,2.03,1.45,4.71,3.09,5.96,8.34,6.35,17.03,12.24,25.45,18.49,2.35,1.74,4.15,2.05,6.63.31,3.4-2.39,6.97-4.57,10.67-6.45,1.13-.58,2.92.13,4.41.25.02.49.03.98.04,1.47-17.11,10.91-34.18,21.88-51.39,32.62-1.08.67-3.51.12-4.82-.68-15.65-9.49-31.26-19.06-46.74-28.82-2.53-1.6-4.29-1.65-6.63,0-3.25,2.3-6.69,4.31-10.46,6.71-1.37-2.07-2.61-3.94-4.2-6.35,3.61-2.36,6.9-4.81,10.47-6.75,3.21-1.75,4.1-4.05,4.09-7.63-.12-47.95-.04-95.9-.17-143.86-.01-3.76,1.06-5.94,4.29-8.03,28.07-18.24,56-36.69,83.98-55.07,1.51-.99,3.06-1.92,5.14-3.23Zm-32.77,39.26c-.27.11-.55.23-.82.34v83.92c12.43-8.27,24.27-16.15,36.27-24.13-12.07-20.48-23.76-40.3-35.45-60.13Z"/>
      <path class="cls-1" d="m2133.55,838.31c4.71-3.85,9.32-7.36,13.58-11.26,1.37-1.26,2.55-3.54,2.56-5.35.14-49.6.14-99.21.07-148.81-.01-8.31-5.87-13.13-11.9-17.31-1.1-.76-4.36,1.12-6.35,2.26-2.31,1.33-3.91,1.85-4.75-1.86,8.49-5.6,17.07-11.27,25.65-16.93,8.33-5.49,16.76-10.86,24.96-16.54,2.7-1.87,4.48-1.61,6.92.35,10.37,8.3,17.85,18.73,23.36,30.69.62,1.34,1.21,2.68,2.11,4.69,15.68-10.22,31.08-20.26,47.01-30.64,8.89,12.45,17.75,24.84,26.79,37.5-7.75,6.22-15.74,11.89-22.83,18.52-7.12,6.65-14.01,13.76-19.8,21.56-7.45,10.03-5.29,19.97,7.75,24.79.39.15.67.6,1.36,1.25-5.62,2.14-10.85,4.36-16.15.34-5-3.79-7.2-11-4.69-17.59,1.87-4.91,4.8-9.42,7.41-14.03,1.13-2,2.67-3.76,4.21-5.9-7.49-9.48-14.89-18.84-22.18-28.06-.69.08-1.03.05-1.32.17-7.28,2.8-9.36,7.81-9.28,15.75.46,45.27.32,90.55.1,135.82-.03,5.51,1.22,9.55,5.9,12.59,2.34,1.52,4.3,3.64,6.79,5.8,3.68-2.56,7.3-5.08,11.22-7.8,1.55,2.16,2.87,4.01,4.72,6.58-6,3.6-11.88,6.77-17.38,10.5-12.27,8.3-24.41,16.8-36.46,25.41-2.87,2.06-4.82,2.26-7.75-.06-12.65-10.02-25.53-19.76-38.31-29.61-1.04-.8-1.99-1.69-3.32-2.82Z"/>
      <path class="cls-1" d="m1064.46,639.62c1.41,2.16,2.58,3.95,4.15,6.34-3.62,2.38-7.07,4.87-10.73,6.98-2.61,1.5-3.6,3.31-3.59,6.37.09,57.92.04,115.85.17,173.77,0,2.03,1.25,4.3,2.51,6.04,1.64,2.27,4.03,3.99,5.8,6.18,3.15,3.89,6.18,6.54,11.48,2.9.88-.61,4.03,2.07,7.25,3.85-14.36,7.7-27.1,14.53-39.84,21.35-4.55,2.43-9.21,4.68-13.64,7.31-2.36,1.41-3.79.96-5.55-.9-6.4-6.77-13.11-13.27-19.35-20.19-3.18-3.53-5.85-4.77-9.77-1.21-1.92,1.74-4.42,2.83-6.97,4.4-1.36-2.12-2.59-4.04-4.01-6.26,1.06-.78,1.86-1.64,2.84-2.04,9.01-3.68,11.22-10.11,11.1-19.81-.59-49.93-.4-99.87-.14-149.8.04-7.51-2.49-13.1-7.74-18.06-3.04-2.87-5.79-4.28-9.34-.92-1.05,1-2.49,1.59-4.07,2.57-.84-1.34-1.58-2.52-2.6-4.14,18.09-12.24,35.95-24.33,54.1-36.61,7.04,5.96,14.15,11.68,20.88,17.83,2.69,2.46,4.55,2.36,7.23.33,2.9-2.19,6.13-3.96,9.82-6.29Z"/>
      <path class="cls-1" d="m1790.01,562.12c-2.13,9.38-4.62,18.18-6.08,27.14-4.93,30.21-3.94,60.68-3.71,91.13.16,20.44-.45,40.89-1.16,61.32-.61,17.7-9.03,31.54-22.2,43.02-10.43,9.1-21.26,17.49-33.48,23.85,4.47-23.91,1.21-47.83,1.48-71.65.06-4.87-3.96-6.87-8.14-7.23-22.84-1.91-44.73-.36-61.46,18.31-.2.22-.56.3-.84.44-6.56-14.19-1.4-36.56,11.23-48.51,12.49-11.82,28.16-16.62,44.46-19.91,4.88-.99,9.84-1.59,15.33-2.45,0-1.89-.1-3.82.02-5.74.81-12.76,1.26-25.55,2.64-38.25,1.09-9.94,5.6-18.68,12.11-26.38,13.49-15.94,28.06-30.71,45.46-42.45,1.31-.88,2.69-1.65,4.34-2.66Z"/>
      <path class="cls-1" d="m1852.95,851.62c-16.93,12.47-33.21,24.46-49.1,36.17-8.59-7.13-16.21-14.69-24.99-20.52-22.32-14.82-46.5-20.23-71.89-8.75-22.01,9.95-34.17,28.47-39.88,51.37-3.28,13.14-3.91,26.35,2.79,38.88,8.99,16.8,29.5,19.61,42.47,5.73,3.04-3.25,5.55-6.99,8.27-10.46,8.64,11.36.36,32.61-14.04,35.52-21.16,4.28-39.18-7.56-45.53-29.8-9.19-32.21-2.45-61.69,16.1-88.66,19.45-28.28,46.1-46.32,80.28-51.8,31.38-5.02,59.72.66,81.46,26.21,4.42,5.19,8.95,10.27,14.06,16.12Z"/>
      <path class="cls-1" d="m102.58,916.92c11.86-.96,19,6.69,18.94,19.99-.07,14.99-7.78,25.43-20.67,32.25-31.04,16.41-79.42,8.23-95.12-38.88-5.96-17.9-7.61-36.29-3.3-54.58,7.29-30.97,31.57-47.42,63.21-43.36,13,1.67,25.81,4.88,38.8,6.69,7.04.98,14.3.9,21.42.52,7.85-.42,13.74-5.25,18.15-11.21,5.96-8.05,11.14-16.68,16.7-25.13-.61,20.81-.84,41.97-10.72,61.35-7.52,14.76-20.82,20.68-36.69,22.19-15.87,1.51-30.56-3.76-45.58-7.34-6.77-1.62-13.67-3.18-20.58-3.61-17.43-1.09-29.06,7.77-33.62,24.75-6,22.34,2.2,45.52,20.66,56.35,22.51,13.2,45.22,11.48,64.03-4.43,8.09-6.85,11.87-15.52,7.32-26.27-1.22-2.88-1.92-5.97-2.94-9.26Z"/>
      <path class="cls-1" d="m1814.82,523.31c-20.13,16.76-40.49,33.07-64.64,43.76-10.96,4.85-22.29,4.82-33.74,2.37-19.67-4.2-39.23-9.01-59.03-12.51-5.99-1.06-13.01.31-18.84,2.48-9.1,3.39-11.8,11.17-9.95,24.69-5.79-8.58-8.13-17.2-7.25-26.6,2.62-28.11,21.42-47.18,49.85-51.5,20.11-3.05,38.98,1.92,57.85,7.57,10.83,3.24,21.63,6.59,32.44,9.9,17.71,5.42,35.4,7.95,53.32-.16Z"/>
      <path class="cls-1" d="m177.61,525.4c-16.67,17.02-33.79,30.4-55.01,37.84-6.42,2.25-12.84,2.66-19.59,1.07-11-2.59-22.09-4.84-33.21-6.84-11.8-2.13-22.93-.33-32.38,7.62-9.33,7.86-16.22,23.65-2.36,37.63,1.14,1.15,2.22,2.35,2.77,4.27-2.03-1.5-4.34-2.73-6.03-4.54-17.31-18.51-20.51-37.92-7.9-58.57,12.94-21.18,33.02-32.17,56.91-36.78,15.85-3.06,31.15-.28,46.04,5.24,16.01,5.92,31.62,13.21,50.77,13.06Z"/>
      <path class="cls-1" d="m1031.22,537.98c9.64,10.69,19.02,21.08,28.6,31.71-10.53,7.56-22.24,15.96-34.27,24.6-10.14-9.24-20.19-18.41-30.83-28.12,11.88-9.18,23.51-18.16,36.5-28.2Z"/>
    </g>
  </g>
</svg>