<svg height="596.28" viewBox="0 0 2279.4 596.28" width="2279.4" xmlns="http://www.w3.org/2000/svg"><g fill="#fff" fill-rule="evenodd"><path d="m579.62.04c1.14-.29 4.02.86 4.59 2.01l7.46 26.41c2.01 6.6 8.61 9.18 16.07 10.89l10.32 39.6c5.16 9.75 14.92 15.2 26.11 19.22l24.38 37.87c6.6 3.72 14.63 10.61 16.07 20.08-2.88 21.53 2.01 43.62-10.34 62.84-12.05 3.45-13.77 19.79-21.8 28.69l-7.46 16.07-35.01 16.07c-3.74-.86-3.74-6.02-8.03-6.89l-12.35 6.89-30.13-11.76-1.44-12.33-14.92-20.38c0-1.71 1.43-4.31 1.43-6.3-.86-.57-1.71-2.01-3.45-3.16-5.16 0-9.47 7.46-12.33 11.48-1.14 2.01-4.59 2.01-8.33 2.01l-19.79-20.38c-16.07-4.02-35.59-5.16-50.79 5.45-13.49 0-22.1 8.04-28.12 18.94-14.92 4.59-33.85 8.33-44.76 22.96-9.18 5.45-18.08 2.3-26.69 0 0 0-.86-1.44-1.72-2.58l4.02-10.32c-3.16-25.54-30.7-35.59-32.14-62.84-.86-4.59-6.32-6.89-8.9-10.04l-3.44-8.03c1.43-14.92 7.46-24.97 20.08-33.86 14.92-5.45 24.4-12.05 36.45-17.79 11.19-9.47 16.65-22.67 16.65-33.85 10.61-6.32 19.51-18.65 28.4-30.41 5.73-4.02 9.47-8.61 16.07-8.04l14.34 7.76 8.03-3.74 10.04-21.8c0-2.3.57-4.88 2.01-6.32 6.03-1.71 14.06-2.58 20.38-8.31h35.86c1.72.86 3.74 1.71 4.02 4.31l-11.76 20.09c6.03 20.38 35.01 18.37 46.77 32.71 3.15 1.73 6.02 1.14 8.04 1.73 3.45-.57 6.6-4.02 8.31-8.04l5.75-65.99 2.04-.87zm28.12 299.28c6.02 7.44 17.79 2.87 27.83 2.87 4.02 3.45-.86 12.33-4.02 15.2-5.16 3.16-7.17 7.2-11.76 8.34l-9.75-1.73-4.59-24.67h2.3s0-.01 0-.01z"/><path d="m26.98 561.57 61.11-138.31 16.07-42.18h23.53l73.16 162.39c8.33 19.53 14.06 31.57 17.51 33.28 1.72 1.44 8.61 3.72 18.37 4.59v10.92c-16.7-1.49-33.45-2.26-50.22-2.31-16.64 0-33.57.86-50.5 2.31v-10.92c3.45 0 10.04-.86 17.79-.86 3.15-.86 5.73-4.59 5.73-9.45 0-2.58-.86-4.89-.86-5.75l-15.2-37.87h-80.63c-.86 1.73-4.31 9.47-8.33 20.65-4.31 12.06-6.89 19.53-6.89 22.11 0 4.01 2.01 7.17 5.16 8.9 1.72.56 8.33 1.41 20.09 1.41v11.78c-8.33 0-15.78-.86-20.95-.86-4.88 0-11.76-.58-18.37-.58-6.03 0-11.48.58-16.64.58s-10.89.86-16.93.86v-10.92c13.49.01 22.68-7.16 26.98-19.78zm75.47-128.83-32.71 78.05h66.29zm183.07 105.89v-113.64c0-14.33-1.43-24.08-4.02-25.81-2.58-2.31-10.89-4.6-24.38-4.6v-11.75c9.18 0 23.53.86 42.18 1.44 25.82-.58 45.91-1.44 59.4-1.44v11.75c-3.16 0-7.46.86-10.91.86-3.15 0-6.6.86-8.31.86-2.59 0-5.16 1.44-5.75 2.89-1.71 2.58-2.58 9.75-2.58 19.22v92.38c0 19.78 3.16 35.01 9.18 44.76 8.33 10.61 24.97 16.37 47.92 16.37 20.09 0 36.16-4.89 44.47-13.5 10.04-9.47 15.2-26.12 15.2-49.06v-94.11c0-7.17-1.72-12.62-3.45-16.06-1.23-1.65-3.11-2.7-5.16-2.89-1.44 0-4.88-.86-7.46-.86-2.3 0-6.89-.86-11.76-.86v-11.75c4.88 0 10.04.86 13.49.86s9.18.58 16.07.58c20.09-.58 35.29-1.44 45.04-1.44v11.75c-13.2 0-22.67 2.31-24.1 4.6-1.72 2.58-2.58 9.75-2.58 19.22v97.83c0 28.7-9.18 50.79-27.83 63.41-7.97 5.77-17.06 9.78-26.69 11.78-11.76 3.14-24.38 4.86-36.16 4.86-23.53 0-44.47-4.86-63.12-13.48s-28.69-23.53-28.69-44.17zm241.32-92.11c0-23.25 7.46-40.76 22.67-51.09 16.06-11.17 37.87-16.93 63.12-16.93 20.09 0 40.17 4.31 59.4 10.61l2.58 4.03c-3.16 9.47-4.88 23.81-4.88 43.03h-13.5l-1.72-24.98c-10.04-11.17-25.25-17.2-43.6-17.2-6.03 0-12.63 1.41-18.65 2.87-6.6 1.73-12.62 6.61-17.51 11.19-5.16 5.72-7.46 13.48-7.46 23.23 0 10.92 4.01 18.09 11.76 21.26 7.46 3.42 22.67 8.31 43.62 12.89 20.95 4.89 37.87 12.06 47.92 19.8 10.89 8.03 16.93 20.65 16.93 38.14 0 16.08-5.16 30.43-13.49 40.45-8.61 11.19-21.24 19.8-34.43 24.69-14.34 4.28-30.41 7.73-46.48 7.73-23.32-.06-46.42-4.64-68-13.48 1.72-9.47 4.31-27.26 4.31-52.79h12.63l3.15 26.12c3.45 5.45 10.32 10.89 19.51 15.78 9.56 5.03 20.19 7.68 31 7.73 14.34 0 26.98-3.72 36.16-10.31 10.04-6.3 15.2-16.37 15.2-28.97 0-11.19-5.16-19.22-14.34-23.25-9.18-4.59-24.38-9.47-42.75-14.06-19.51-4.89-35.29-12.06-45.63-20.09-10.05-8.03-16.65-20.65-17.51-36.43zm268.56 104.15v-148.89h-46.47c-6.6 0-11.48 1.73-13.49 4.01-.57 1.73-2.58 11.19-3.16 26.98h-13.49c0-15.78-1.72-32.7-3.45-48.48l1.72-1.44c12.62 0 25.25.86 35.29.86s25.25.58 42.18.58c54.52-.58 96.4-1.44 124.25-1.44l.86 1.44c-1.43 22.37-3.44 39.01-3.44 48.48h-12.63c0-13.5-1.43-22.96-4.02-26.98-1.73-2.28-6.6-4.01-15.21-4.01h-43.89v156.09c0 9.75 1.15 16.34 2.58 18.07 2.01 1.44 6.03 3.16 11.76 3.16 6.02 0 10.91 1.41 13.49 1.41v11.78c-13.49 0-24.1-.86-30.98-.86-7.76 0-16.94-.58-26.11-.58-6.6 0-14.06.58-20.09.58s-14.34.86-24.38.86v-11.78c14.92 0 23.53-2.28 25.25-4.59 1.71-1.73 3.44-11.19 3.44-25.25zm234.43-70.02h5.73c10.32 0 20.38-3.14 30.41-9.75 10.04-6.3 16.07-19.2 16.07-34.71 0-11.19-4.31-20.95-12.62-27.26-9.07-6.67-20.02-10.29-31.28-10.34-10.04 0-17.51 1.44-20.09 3.16v39.01l-.29 39.87h12.06s0 .01 0 .01zm-12.05 21.82.29 55.39c0 10.61.86 17.2 2.58 18.07 1.73 1.44 4.88 3.16 8.33 3.16 4.31 0 10.32 1.41 16.07 1.41v11.78c-10.04 0-18.65-.86-24.4-.86-6.6 0-14.34-.58-21.82-.58-8.6 0-17.79.58-24.38.58-7.46 0-18.65.86-30.41.86v-11.78c6.89 0 13.49-1.41 16.94-1.41s6.6-1.73 7.46-3.16c1.73-1.73 3.45-10.61 3.45-25.25v-125.66c0-13.77-1.73-22.37-3.45-25.81-.86-1.44-9.18-2.89-24.4-4.6v-11.75c6.89 0 14.34.86 19.52.86 5.73 0 14.06.58 23.53.58 38.44-.58 66.28-1.44 80.62-1.44 13.49 0 25.25 2.31 33.58 5.45 8.61 4.03 15.2 8.61 18.65 13.5 3.15 4.86 6.6 10.31 6.6 14.33 0 4.59.86 8.9.86 11.75 0 12.92-4.31 24.69-13.49 34.45-9.18 9.45-30.41 22.65-43.62 26.68l57.11 63.12c5.16 6.03 9.18 11.75 11.76 14.92s5.16 6.3 6.89 7.17c2.28 2.58 8.04 4.89 14.93 6.3v11.78c-6.89 0-13.5-.86-17.51-.86-5.16 0-10.91-.58-16.07-.58-4.31 0-9.18.58-12.62.58s-9.47.86-15.21.86l-81.77-89.83zm188.8 59.12 61.4-138.31 16.06-42.18h23.25l73.16 162.39c8.61 19.53 14.33 31.57 17.78 33.28 1.44 1.44 8.61 3.72 18.37 4.59v10.92c-16.79-1.49-33.64-2.26-50.49-2.31-16.64 0-33.59.86-50.23 2.31v-10.92c3.16 0 10.05-.86 17.81-.86 3.14-.86 5.72-4.59 5.72-9.45 0-2.58-.86-4.89-.86-5.75l-15.2-37.87h-80.63c-.86 1.73-4.31 9.47-8.34 20.65-4.28 12.06-6.86 19.53-6.86 22.11 0 4.01 2 7.17 5.16 8.9 1.7.56 8.31 1.41 20.06 1.41v11.78c-8.31 0-15.76-.86-20.92-.86-4.89 0-12.06-.58-18.66-.58-5.72 0-11.48.58-16.64.58s-10.89.86-16.93.86v-10.92c13.49.01 22.68-7.16 26.99-19.78zm75.74-128.83-32.7 78.05h66.26l-33.57-78.05zm158.67-49.93c10.05 0 28.7.86 53.95 1.44 19.2-.58 35.29-1.44 47.04-1.44v11.75c-1.73 0-5.72 1.73-12.62 1.73-6.89.58-11.78 2.31-12.62 3.75-.86 1.73-1.73 8.03-1.73 18.37v154.92c18.65 0 34.42.86 44.46.86 20.09 0 33.01-2.28 36.15-4.86l6.61-31.57h12.92l-3.45 51.35-1.72 1.73c-15.23.58-38.73 1.44-67.16 1.44-15.2 0-38.73-.86-69.15-1.44-4.86 0-13.2.58-21.82.58v-6.03c8.61-4.03 13.5-8.03 14.36-9.47 1.73-2.58 2.58-7.44 2.58-13.76v-136.58c0-15.78-1.73-24.67-3.45-26.39-1.73-1.44-10.92-2.89-24.4-4.6v-11.75h.04zm203.72 12.62v-12.62c8.34 0 15.78.86 22.97.86 6.59 0 15.47.58 26.68.58s20.09-.58 26.98-.58 15.78-.86 24.08-.86v12.62c-3.14 0-6.59.86-9.75.86-3.45 0-7.76.58-10.34.58-2.28 0-4.86 1.73-4.86 3.16-.86 3.45-1.72 9.75-1.72 18.37v142.59c0 7.47.86 13.2 1.72 14.92 1.72 1.44 5.72 3.16 12.62 3.16s10.92 1.41 12.33 1.41v11.78c-11.75 0-20.65-.86-27.53-.86s-15.2-.58-23.53-.58-16.06.58-22.67.58-16.06.86-26.98.86v-11.78c2.58 0 7.47-1.41 13.5-1.41 6.89 0 10.89-1.73 11.75-3.16 1.72-2.58 2.58-11.19 2.58-24.67v-126.25c0-14.33-1.72-23.23-3.45-24.95-1.4-2.3-10.88-4.6-24.38-4.6zm154.68 166.14 61.4-138.31 16.06-42.18h23.25l73.16 162.39c8.61 19.53 14.33 31.57 17.78 33.28 1.44 1.44 8.61 3.72 18.37 4.59v10.92c-16.79-1.49-33.64-2.26-50.49-2.31-16.64 0-33.59.86-50.23 2.31v-10.92c3.16 0 10.05-.86 17.81-.86 3.14-.86 5.72-4.59 5.72-9.45 0-2.58-.86-4.89-.86-5.75l-15.2-37.87h-80.63c-.86 1.73-4.31 9.47-8.34 20.65-4.28 12.06-6.86 19.53-6.86 22.11 0 4.01 1.72 7.17 5.16 8.9 1.7.56 8.31 1.41 20.06 1.41v11.78c-8.31 0-15.78-.86-20.92-.86s-12.06-.58-18.66-.58c-5.72 0-11.48.58-16.64.58s-10.89.86-16.93.86v-10.92c13.49.01 22.68-7.16 26.99-19.78zm75.74-128.83-32.7 78.05h66.26l-33.57-78.05zm184.79 118.5v-131.99c0-11.17-1.72-18.34-3.45-20.06-1.72-1.44-10.05-3.75-24.4-4.6v-11.75c9.2 0 24.4.86 43.9 1.44 10.05-.58 18.37-1.44 22.67-1.44 10.89 13.48 22.67 27.83 33.57 40.45 11.78 13.48 22.67 26.12 32.72 37.59 10.03 10.89 21.79 22.96 32.7 34.73 11.55 13.27 23.41 26.28 35.56 39.01v-115.35c0-9.45-1.72-15.76-3.45-19.2-1.7-3.16-10.03-5.47-24.37-5.47v-11.75c5.72 0 11.75.86 16.93.86 4.89 0 11.75.58 19.22.58 8.31 0 15.78-.58 20.95-.58 4.86 0 10.89-.86 16.93-.86v11.75c-10.34 0-16.93 1.73-19.51 1.73s-5.16 2.31-5.75 4.6c-1.72 3.14-2.58 9.75-2.58 17.51 0 9.45.86 23.23.86 40.74v89.79c0 16.37.86 32.42.86 45.63l-2.58.86-26.95-3.14c-14.92-16.37-27.83-30.12-36.17-39.31-8.31-9.47-19.22-22.4-32.7-37.59-13.48-15.78-25.81-29.26-35.29-40.45-10.05-11.19-23.53-26.98-39.6-44.49v127.41c0 9.17.86 16.34 2.58 18.92.86 1.44 5.16 3.72 10.89 3.72 6.03 0 11.19.86 13.48.86v10.92c-12.57-1.46-25.22-2.23-37.87-2.31-11.75 0-24.4.86-37.02 2.31v-10.92c14.33 0 22.67-2.28 24.4-4.59 1.75-2.61 3.48-11.49 3.48-25.55zm-1162.09-297v-155.23h-47.05c-6.6 0-11.76 1.71-13.49 4.02-.86 1.73-2.58 11.76-3.45 28.4h-13.77c0-16.64-1.43-34.14-3.44-50.79l2.01-1.44c12.62 0 25.54.86 35.86.86s25.54.57 42.76.57c55.1-.57 97.84-1.44 125.96-1.44l.86 1.44c-1.44 23.24-3.45 40.75-3.45 50.79h-12.62c0-14.34-1.73-24.1-4.31-28.4-1.73-2.3-6.89-4.02-15.5-4.02h-44.47v162.39c0 10.91.87 17.51 2.58 19.22 1.73 1.43 6.03 3.45 12.05 3.45s11.19 1.43 13.77 1.43v12.33c-13.77 0-24.97-.86-31.85-.86-7.46 0-16.94-.86-26.39-.86-6.89 0-14.64.86-20.38.86s-14.34.86-24.67.86v-12.33c15.49 0 24.1-2.58 25.82-4.88 1.74-1.7 3.16-11.74 3.16-26.37zm143.76-161.84v-13.19c11.19 0 31.85.86 59.12 1.44 20.36-.57 35.86-1.44 44.19-1.44v13.2h-15.21c-3.44 0-6.89 1.44-8.61 2.3-2.13 1.53-3.42 3.98-3.45 6.6 0 3.45-.86 9.18-.86 15.78v57.39c12.05 0 31.87.86 57.39.86 19.51 0 35.01-.86 43.62-.86v-51.36c0-14.93-.86-24.1-2.58-25.82-.86-1.73-3.45-3.45-5.16-3.45-2.58 0-6.03-.57-8.61-.57s-7.76-.86-12.62-.86v-13.22c9.45 0 24.67.86 44.46 1.44 27.26-.57 47.65-1.44 58.82-1.44v13.2c-6.86 0-13.76 1.44-17.78 1.44-4.59 0-7.76 2.58-8.61 5.16-.86 3.15-1.73 9.75-1.73 18.08v146.91c0 8.33.86 14.92 2.58 16.64 1.44 1.43 5.75 3.45 11.78 3.45s11.17 1.43 13.76 1.43v12.33c-17.55-1.61-35.16-2.37-52.79-2.3-16.37 0-33.57.57-50.49 2.3v-12.33c7.44 0 13.48-1.43 16.93-1.43s6.89-2.01 7.76-2.58c1.73-1.73 3.45-4.31 3.45-6.6 0-3.45.86-9.18.86-16.64v-64.56c-10.34 0-25.84-.86-46.2-.86-25.54 0-44.47.86-54.81.86v67.14c0 9.75.86 17.21 2.88 19.79.57 2.3 10.04 4.88 25.25 4.88v12.33c-11.76 0-22.67-.86-30.7-.86-7.46 0-16.93-.86-25.54-.86-7.74 0-15.2.86-21.52.86s-15.2.86-25.54.86v-12.33c13.77-1.43 23.24-3.45 24.67-4.02 2.58-1.73 4.59-9.18 4.59-20.66v-143.74c0-9.75-2.01-17.22-3.74-19.79-.88-1.73-10.06-4.03-25.55-4.89zm274.01-.86v-12.33c8.61 0 16.93.86 23.81.86s17.22.57 28.42.57c18.65-.57 47.04-1.44 84.63-1.44h18.66c5.14 0 11.17.86 16.34.86l1.73 2.3-4.59 46.48h-11.78c-1.7-14.93-2.58-23.24-2.58-24.1s-1.73-2.58-3.42-2.58c-4.31-1.44-16.95-3.15-35.87-3.15h-40.18v76.33h10.34c3.45 0 8.59.86 13.76.86 4.89 0 14.36-.86 24.67-.86 4.31 0 7.76-.86 9.2-2.3 2-1.71 4.59-5.16 4.59-8.33 0-3.44.86-8.33.86-13.49h13.5v13.49c0 4.02-.86 10.62-.86 18.08v19.8c0 5.16.86 11.76.86 17.51h-13.5c0-8.9-1.73-16.64-3.45-20.66-2-4.88-7.76-7.46-14.62-7.46h-18.95c-6.61 0-16.06.86-26.39 1.71v84.36c6.89 0 17.2.86 30.7.86 2.58 0 6.89-.86 12.06-.86 24.67 0 38.46-1.73 39.29-3.15 0-3.45 1.73-6.89 1.73-10.04 0-3.45 2.58-10.62 5.16-20.38h12.92c0 8.33-.86 16.35-.86 22.96-.86 6.6-2.58 16.64-2.58 27.26l-1.73 1.43c-19.78.86-35.01 1.73-44.49 1.73-17.2 0-43.59-.86-77.74-1.73-17.22.86-31.01 1.73-38.46 1.73v-7.17c3.45-1.73 6.89-4.31 7.44-4.31 1.79-.75 3.37-1.93 4.6-3.44 1.73-1.44 3.14-3.16 4.01-4.88s1.73-13.2 1.73-33.57v-120.8c0-11.48-.86-19.79-1.73-22.96-.86-3.44-3.45-6.89-4.86-6.89-1.69-.01-10.3-1.45-22.36-2.31z"/></g></svg>