<?xml version="1.0" encoding="UTF-8"?>
<svg id="Layer_2" data-name="Layer 2" xmlns="http://www.w3.org/2000/svg" viewBox="0 0 1425.22 407.13">
  <defs>
    <style>
      .cls-1 {
        fill: #fff;
      }
    </style>
  </defs>
  <g id="Layer_1-2" data-name="Layer 1">
    <path class="cls-1" d="m1423.93,395.02c-60.12-27.67-199.73-61.47-219.57-66.2-1.27-.3-2-1.63-1.57-2.87l80.54-235.83c.19-.56.15-1.18-.12-1.71l-1.02-2.03c-.39-.77-1.19-1.25-2.05-1.22l-62.67,2.01c-.21,0-.41.04-.61.11l-9.25,2.98c-.7.23-1.25.79-1.45,1.5l-37.13,130.43c-.61,2.15-3.67,2.14-4.27-.01l-36.23-130.07c-1.15-4.14-4.92-7-9.22-7h-50.84c-7.37,0-12.6,7.18-10.35,14.19l67.36,209.7c.5,1.57-.82,3.12-2.45,2.87l-72.07-11.21c-1.08-.17-1.88-1.1-1.88-2.19v-156.68l.14,26.82v-25.08c0-37.67-30.54-68.2-68.2-68.2h-52.22c-43.42,0-80.18,28.4-82.17,74.24-.15,3.5,2.68,6.41,6.19,6.41l56.86-.02c1.22,0,2.22-.99,2.22-2.22v-.04c0-16.91,13.71-30.63,30.63-30.63h14.82c13.68,0,24.76,11.09,24.76,24.76v3.3c0,7.39-5.8,13.22-13.43,14.43l-12.59,2-62.47,10.68c-29.53,4.9-54.29,30.4-54.29,65.44,0,12.86,3.26,24.8,8.89,34.8h-.15c-8.63-.97-20.03-1.77-29.34-2.15-1.19-.05-2.12-1.03-2.12-2.21V6.66c0-.19-.02-.37-.07-.55l-1.14-4.44c-.25-.98-1.13-1.66-2.15-1.66h-61.55c-1.22,0-2.22.99-2.22,2.22v100.34c-17.15-15.28-38.54-24.35-61.74-24.35-56.39,0-102.1,53.58-102.1,119.67,0,30.14,9.5,57.67,25.19,78.71h-.85c-12.4-.34-44.81,2.07-63.75,3.79l-.89.09c19.35-21.4,31.16-49.94,31.16-81.28,0-66.39-53-120.2-118.37-120.2s-118.37,53.82-118.37,120.2c0,41.06,20.27,77.31,51.21,99h-1c-9.62.3-54.78,7.51-66.07,9.33-1.35.22-2.57-.82-2.57-2.19V69.41c0-1.22.99-2.22,2.22-2.22h80.76c2.87,0,5.2-2.33,5.2-5.2V10.23c0-.77-.4-1.49-1.06-1.89l-9.09-5.57c-.35-.21-.75-.33-1.16-.33h-239.64c-3.88,0-7.02,3.14-7.02,7.02v47.46c0,6.25,5.06,11.31,11.31,11.31h76.19c1.23,0,2.23,1,2.22,2.23-.21,23.07-2.01,218.16-2.53,251.84-.02,1.05-.77,1.93-1.8,2.13-104.08,19.7-211.24,61.27-235.55,71-1.86.74-1.85,3.37,0,4.11l2.26.9c.38.15.79.2,1.19.13,285.29-48.61,626.41-91.75,1078.6-46.1,1.14.12,2.01,1.08,2,2.23l-.37,40.43s-.97,3.89,4.64,8.53c.34.28.77.45,1.21.49,78.76,7.4,91.24-29.31,97.87-41.01.39-.69,1.13-1.11,1.92-1.11,21.37.15,182.65,26.92,231.92,35.18,2.55.43,3.64-3.12,1.3-4.2Zm-964.64-130.84c-25.65,0-46.43-17.16-46.43-66.54,0-36.75,13.32-65.54,46.43-65.54,25.65,0,45.43,22.17,45.43,65.54,0,40.43-19.79,66.54-45.43,66.54Zm290.19-66.54c.14,49.9-20.79,66.54-46.43,66.54s-46.43-29.79-46.43-66.54c0-43.12,20.79-65.54,46.43-65.54,29.95,0,48.6,19.73,46.43,65.54Zm229.12,53.86c-5.26,11-18.92,20.58-39.18,20.58-36.7,0-41.59-6.48-41.59-28.77,0-13.28,13-23.06,30.68-25.91,0,0,.04-.01.13-.02.17-.02.51-.07.99-.15.03,0,.05,0,.08-.01,7.21-1.08,44.75-6.88,52.47-10.97,1.01,9.03,2.48,35.6-3.58,45.25Z"/>
  </g>
</svg>