<svg width="84" height="14" viewBox="0 0 84 14" fill="none" xmlns="http://www.w3.org/2000/svg">
<path d="M40.0994 6.78554L40.5045 6.47583L41.003 7.09525V11.4312L40.5356 11.9732L42.7166 13.4831L44.8353 11.2376L44.5861 10.9279L43.9629 11.5474L43.2463 11.0054V6.3984C43.2463 6.3984 43.9006 7.5211 44.8976 7.44368C44.8976 7.44368 46.3932 7.40496 46.8294 6.01126C46.8294 6.01126 45.2092 7.09525 44.773 4.54013L43.184 6.20483L42.0935 4.77241L39.9125 6.47583L40.0994 6.78554ZM10.905 3.53356C10.6869 3.53356 10.4688 3.41742 10.3131 3.22385H10.5312C11.092 3.14642 11.0608 2.75928 11.0608 2.75928V1.01716C11.5905 1.01716 11.8398 0.165448 11.8398 0.165448C11.8398 0.165448 11.4659 0.475159 10.8739 0.242876C10.8739 0.242876 10.1884 -0.10555 9.78338 0.320304C9.37834 0.746157 9.31602 1.01716 9.22255 1.28815C9.31602 1.1333 9.87685 0.591301 10.4688 0.862299V2.87543C10.4688 2.87543 10.4688 3.14642 10.2196 3.069C10.0638 2.798 10.0015 2.527 10.0015 2.21729C10.0015 1.75272 10.1573 1.32687 10.4377 1.09458C9.81454 1.09458 9.37834 1.75272 9.37834 2.527C9.37834 3.41742 9.87685 4.03685 10.5623 4.03685C11.1855 4.03685 11.684 3.49485 11.7774 2.75928C11.6217 3.18514 11.2789 3.53356 10.905 3.53356ZM15.3917 3.37871L14.862 2.87543L15.8279 2.21729L15.2982 1.01716L14.1766 1.79143L14.27 1.94629V3.14642L14.1454 3.26257L14.8309 3.95942L15.7967 3.26257L15.7344 3.10771L15.3917 3.37871ZM14.862 1.55915L15.2671 2.41086L14.862 2.68186V1.55915ZM12.8368 1.67529L12.6187 1.83015V3.10771L12.9303 3.41742L12.4006 3.88199L11.8398 3.30128L11.9644 3.18514V1.28815C11.9644 0.707443 11.8086 0.591301 11.8086 0.591301L12.6187 0.204162V1.63658L13.2107 1.1333L13.8961 1.83015L13.7404 1.90758V3.03028L14.1142 3.41742L13.5846 3.9207L12.9926 3.33999L13.1172 3.18514V1.94629L12.8368 1.67529ZM33.7745 11.4699V7.13396L34.3353 6.70811L32.4036 4.81113L30.6899 6.59197L31.5 7.25011V11.3151L30.9703 12.1668L33.276 13.6766L34.678 12.0506C34.6469 12.0894 33.7745 11.4699 33.7745 11.4699ZM34.0861 3.18514L32.7151 1.985L31.8739 3.49485L33.2448 4.69498L34.0861 3.18514ZM79.1706 11.4699V7.13396L79.7315 6.70811L77.7997 4.81113L76.0861 6.59197L76.8961 7.25011V11.3151L76.3665 12.1668L78.6721 13.6766L80.0742 12.0506L79.1706 11.4699ZM79.4822 3.18514L78.1113 1.985L77.27 3.49485L78.641 4.69498L79.4822 3.18514ZM83.0653 11.4312V2.10115L80.3234 3.18514C80.3234 3.18514 80.8531 3.53356 80.8531 4.15299V11.3151L80.2923 12.1668L82.5979 13.6766L84 12.0506L83.0653 11.4312ZM8.94214 9.80523C8.22552 10.6957 7.2908 11.3538 6.51187 11.5861V4.42399C7.01039 4.7337 7.35312 4.61756 7.35312 4.61756C7.88279 4.61756 8.72404 3.84328 8.87982 3.069C7.69585 4.23042 6.29377 1.985 6.29377 1.985L3.8635 5.15955V10.6182C3.05341 9.68909 2.52374 8.25667 2.52374 6.59197C2.52374 4.38527 3.24036 2.798 4.39318 2.02372C2.11869 2.13986 0 4.69498 0 7.86953C0 11.2764 1.99407 13.7153 4.5178 13.7153C6.29377 13.7541 8.22552 12.0894 8.94214 9.80523ZM3.92582 10.6957L5.73294 8.91481V3.68842C5.88872 3.9207 6.07567 4.07556 6.2003 4.23042V11.7022C6.10683 11.7022 6.01335 11.7409 5.91988 11.7409C5.20326 11.7022 4.48665 11.3151 3.92582 10.6957ZM74.9021 10.8505V7.48239L75.3383 7.01782L72.7211 4.84984C71.2255 5.23698 68.7329 6.94039 68.2656 9.26323C67.7982 11.6248 68.7641 12.7475 69.6677 13.4056C70.2596 13.8702 70.727 13.4831 70.727 13.4831L72.6588 11.9732L74.3412 13.5605L76.1172 11.9732L74.9021 10.8505ZM72.0979 11.6635C71.5371 11.6635 69.9169 10.8118 69.9481 9.1858C69.9792 7.55982 70.6024 6.74682 71.132 6.20483L72.6588 7.44368V11.1215C72.6588 11.1602 72.7211 11.6635 72.0979 11.6635ZM55.3976 3.41742L57.1736 1.90758L58.8561 3.37871L61.1617 1.90758L62.8754 3.37871L65.0564 1.94629L67.0193 3.49485V11.4312L67.8917 12.0506L66.4896 13.6766L64.7136 12.5152V4.77241L63.3116 3.76585L63.0312 4.03685V11.4312L63.9036 12.0506L62.5015 13.6766L60.7255 12.5152V4.77241L59.2611 3.76585L58.9807 4.03685V11.4312L59.8531 12.0506L58.451 13.6766L56.6751 12.5152V4.26913L55.3976 3.41742ZM38.9154 11.8958L37.046 10.2698L40.5045 8.3341L38.6039 4.54013L34.5534 6.97911L34.9896 7.40496V11.0828L34.5534 11.4699L37.0148 13.6379L40.411 11.5086L40.224 11.0828L38.9154 11.8958ZM37.1083 6.28226L38.5104 8.99224L37.1083 9.76651V6.28226ZM23.9288 6.78554L23.7107 6.47583L25.8917 4.77241L26.9822 6.20483L28.5712 4.54013C29.0074 7.09525 30.6276 6.01126 30.6276 6.01126C30.1914 7.40496 28.6958 7.44368 28.6958 7.44368C27.6988 7.5211 27.0445 6.3984 27.0445 6.3984V11.0828L27.7923 11.5474L28.4154 10.9279L28.6647 11.2376L26.546 13.4831L24.365 11.9732L24.8323 11.4312V7.09525L24.3338 6.47583L23.9288 6.78554ZM20.6573 11.0828V7.13396L20.0964 6.55325L21.8412 4.7337L23.3991 6.51454L22.8694 7.05654V10.8892L23.773 11.6635L24.0534 11.3151L24.2715 11.5086L22.6202 13.6766L20.595 11.6248L18.7567 13.5605L16.1083 11.4699L16.7315 10.9666V7.59853L15.8902 6.55325L17.7908 4.77241L19.1617 6.59197V10.8505L20.1276 11.6248L20.6573 11.0828ZM13.0861 4.61756L8.75519 7.17268L9.25371 7.48239V11.0054L8.78635 11.4312L12.089 13.5992L15.4852 10.3472V6.94039L13.0861 4.61756ZM13.0861 11.8958L11.4659 10.5408V6.08869L13.0861 7.71467V11.8958Z" fill="white"/>
</svg>
