<svg width="84" height="12" viewBox="0 0 84 12" fill="none" xmlns="http://www.w3.org/2000/svg">
<path d="M81.3338 6.0476V4.49326C80.4325 4.76562 79.5688 4.93467 78.691 5.06146V5.47939C79.3623 5.64845 79.489 5.69071 79.489 6.44675V9.61647C79.489 10.5181 79.3435 10.6026 78.5455 10.6871V11.1473H82.5542V10.6871C81.423 10.5838 81.3385 10.5181 81.3385 9.61647V6.90694C81.592 6.33874 81.883 6.15091 82.1552 6.15091C82.4087 6.15091 82.573 6.25422 82.8265 6.46553C82.9298 6.55006 83.08 6.59232 83.2865 6.52658C83.6855 6.381 84 5.95837 84 5.43244C84 4.92998 83.601 4.53082 83.0143 4.53082C82.4697 4.53082 81.9018 5.16007 81.376 6.06168H81.3338V6.0476ZM75.4756 5.10372C76.0436 5.10372 76.3769 5.85976 76.3769 6.6158C76.3581 6.86938 76.2924 6.88816 76.0624 6.91164C75.4521 6.93512 74.9311 6.93512 74.3209 6.9539C74.4054 5.77993 74.9311 5.10842 75.4521 5.10842H75.4709L75.4756 5.10372ZM77.8461 9.36759C77.3438 9.809 76.7946 9.99684 76.2079 9.99684C75.1564 9.99684 74.2974 9.19854 74.2364 7.6442C75.6634 7.58315 77.4706 7.43288 77.7194 7.4141C78.0573 7.37184 78.1371 7.184 78.1371 6.88816C78.1559 5.69071 77.1091 4.53552 75.7666 4.53552H75.7479C74.9499 4.53552 74.1519 4.93467 73.5041 5.5874C72.8035 6.28867 72.41 7.23969 72.4104 8.23118C72.4104 9.91231 73.5041 11.3586 75.4521 11.3586C76.0624 11.3586 77.1936 11.0628 78.0949 9.71978L77.8414 9.36289L77.8461 9.36759ZM71.6312 6.44675C71.6124 6.15091 71.42 5.10372 71.2744 4.76562C70.9365 4.62005 70.5375 4.49326 69.8662 4.49326C68.336 4.49326 67.4112 5.43713 67.4112 6.57353C67.4112 7.83203 68.6082 8.40023 69.2795 8.73834C70.1807 9.15627 70.392 9.53664 70.392 9.95457C70.392 10.396 70.0775 10.7529 69.594 10.7529C68.6927 10.7529 68.0215 9.74326 67.707 8.82286L67.2657 8.86513C67.2845 9.5789 67.4112 10.5885 67.4957 10.8374C67.7914 11.0487 68.566 11.3399 69.3405 11.3399C70.5797 11.3399 71.9645 10.6261 71.9645 9.17506C71.9645 8.04335 71.1665 7.51741 69.993 7.01025C69.2372 6.67215 68.8992 6.33874 68.8992 5.87854C68.8992 5.41835 69.256 5.08024 69.655 5.08024C70.3497 5.08024 70.8097 5.69071 71.2087 6.56884L71.6265 6.44205L71.6312 6.44675ZM67.1202 11.1708V10.7106C66.2377 10.5838 66.1767 10.5228 66.1767 9.51316V4.51674C65.3599 4.74684 64.393 4.93467 63.5105 5.04268V5.46061C64.224 5.5874 64.3085 5.62966 64.3085 6.59232V9.48968C64.3085 10.5416 64.224 10.5838 63.365 10.6871V11.1473H67.1202V11.1708ZM65.1065 3.59165C65.7167 3.59165 66.1579 3.13145 66.1579 2.56325C66.1579 1.97626 65.6979 1.53485 65.1065 1.53485C64.5385 1.53485 64.055 1.97626 64.055 2.56325C64.0738 3.10797 64.5573 3.59165 65.1065 3.59165ZM63.0927 10.6261L62.9472 10.1236C62.6937 10.2504 62.4637 10.2927 62.2102 10.2927C61.8957 10.2927 61.37 10.1659 61.37 9.0107V5.39956H62.7125C62.9425 5.27278 62.9847 4.85484 62.797 4.68579H61.37V2.56325L61.1588 2.47872L59.5018 3.61043V4.68109H58.915L58.4972 5.20703L58.5583 5.37608H59.483V9.48968C59.483 10.8139 60.1355 11.3352 61.2667 11.3352C61.37 11.3352 61.6047 11.2929 61.8769 11.1661L63.0927 10.6214V10.6261ZM55.5588 6.0476V4.49326C54.6575 4.76562 53.7938 4.93467 52.916 5.06146V5.47939C53.5873 5.64845 53.714 5.69071 53.714 6.44675V9.61647C53.714 10.5181 53.5685 10.6026 52.7705 10.6871V11.1473H56.7792V10.6871C55.6479 10.5838 55.5635 10.5181 55.5635 9.61647V6.90694C55.8169 6.33874 56.108 6.15091 56.3802 6.15091C56.6337 6.15091 56.798 6.25422 57.0515 6.46553C57.1547 6.55006 57.3049 6.59232 57.5115 6.52658C57.9105 6.381 58.225 5.95837 58.225 5.43244C58.225 4.92998 57.826 4.53082 57.2392 4.53082C56.6947 4.53082 56.1267 5.16007 55.601 6.06168H55.5588V6.0476ZM49.7006 5.10372C50.2686 5.10372 50.6018 5.85976 50.6018 6.6158C50.5831 6.86938 50.5173 6.88816 50.2873 6.91164C49.6771 6.93512 49.1561 6.93512 48.5458 6.9539C48.6303 5.77993 49.1561 5.10842 49.6771 5.10842H49.6959L49.7006 5.10372ZM52.0711 9.36759C51.5688 9.809 51.0196 9.99684 50.4329 9.99684C49.3814 9.99684 48.5224 9.19854 48.4614 7.6442C49.8883 7.58315 51.6956 7.43288 51.9443 7.4141C52.2823 7.37184 52.3621 7.184 52.3621 6.88816C52.3809 5.69071 51.3341 4.53552 49.9916 4.53552H49.9728C49.1749 4.53552 48.3769 4.93467 47.7291 5.5874C47.0284 6.28867 46.635 7.23969 46.6354 8.23118C46.6354 9.91231 47.7291 11.3586 49.6771 11.3586C50.2873 11.3586 51.4186 11.0628 52.3199 9.71978L52.0664 9.36289L52.0711 9.36759ZM47.0766 4.68579H44.4339V5.14599C45.2319 5.27277 45.2929 5.46061 45.1286 5.94429C44.7906 6.9539 44.3306 8.29693 44.0349 8.96844C43.8236 8.35797 43.2791 6.93042 42.9224 5.90202C42.7346 5.39956 42.7956 5.29156 43.4904 5.14599V4.68579H39.8806V5.14599C40.5941 5.31504 40.7819 5.46061 41.0354 6.11334C41.7489 7.79447 42.4201 9.49438 43.1571 11.3211H43.7251C44.6075 9.09523 45.321 7.32957 45.8655 6.13682C46.18 5.44183 46.349 5.27747 47.0813 5.15068V4.69049L47.0766 4.68579ZM37.3177 9.99684C37.0032 10.2082 36.7732 10.2269 36.5197 10.2269C35.8484 10.2269 34.797 9.53194 34.797 7.72872C34.797 5.50287 35.9282 5.1272 36.285 5.1272C36.7028 5.1272 37.1018 5.38078 37.3365 5.88324V9.99684H37.3177ZM40.1951 10.3115L39.8806 10.288C39.2704 10.2035 39.1859 10.1612 39.1859 9.32063V0.858643C38.4302 1.06996 37.2754 1.27658 36.3319 1.38458V1.84478C37.2332 1.94809 37.3177 2.01383 37.3177 2.81213V4.59657C37.0032 4.5543 36.8342 4.53552 36.7075 4.53552C34.4215 4.53552 32.6987 6.17439 32.6987 8.14666C32.6987 10.3302 34.4402 11.3586 35.6795 11.3586C35.8484 11.3586 36.055 11.3399 36.4352 11.0863L37.3177 10.5181V11.3586C38.4724 11.0205 39.8572 10.8562 40.2139 10.7904V10.3068L40.1951 10.3115ZM28.8168 7.26853H26.5308C26.9063 6.21665 27.2865 5.16947 27.6855 4.0988H27.7277L28.8215 7.26853H28.8168ZM33.1635 11.1755V10.6496C32.2387 10.5228 32.051 10.3349 31.5487 9.05296C30.6052 6.53127 29.6805 3.97201 28.7557 1.40806L28 1.5959L25.0005 9.13279C24.517 10.3725 24.348 10.5181 23.3623 10.6449L23.3435 11.1473H26.6199V10.6449C25.5497 10.5181 25.5262 10.3068 25.7187 9.59299C25.8877 9.006 26.0754 8.48006 26.2444 8.01987H29.0562C29.2674 8.63033 29.4974 9.2361 29.6429 9.67752C29.8729 10.3302 29.8119 10.4946 28.9482 10.6214V11.1238H33.1681L33.1635 11.1755ZM19.3348 5.10372C19.9028 5.10372 20.236 5.85976 20.236 6.6158C20.2173 6.86938 20.1516 6.88816 19.9215 6.91164C19.3113 6.93512 18.7903 6.93512 18.18 6.9539C18.2645 5.77993 18.7903 5.10842 19.3113 5.10842H19.3301L19.3348 5.10372ZM21.7053 9.36759C21.203 9.809 20.6538 9.99684 20.0905 9.99684C19.0391 9.99684 18.18 9.19854 18.119 7.6442C19.546 7.58315 21.3532 7.43288 21.602 7.4141C21.94 7.37184 22.0198 7.184 22.0198 6.88816C22.0386 5.69071 20.9918 4.53552 19.6493 4.53552H19.6305C18.8325 4.53552 18.0345 4.93467 17.3868 5.5874C16.6861 6.28867 16.2927 7.23969 16.293 8.23118C16.293 9.91231 17.3868 11.3586 19.3348 11.3586C19.945 11.3586 21.0763 11.0628 21.9775 9.71978L21.7053 9.36289V9.36759ZM16.4808 11.1755V10.7153C15.7251 10.5885 15.6406 10.5885 15.6406 9.64464V6.9586C15.6406 5.34321 14.8848 4.52143 13.6268 4.52143C12.9133 4.52143 12.1764 4.96285 11.6741 5.46531V0.868034C10.7916 1.09813 9.76362 1.28597 8.9891 1.39397V1.81191C9.74484 1.89643 9.80587 1.89643 9.80587 2.79804V9.62116C9.80587 10.5463 9.72137 10.6073 8.88114 10.6918V11.152H12.3453V10.6918C11.7351 10.5885 11.6741 10.4805 11.6741 9.68221V6.00533C11.9886 5.69071 12.3876 5.5874 12.7256 5.5874C13.2935 5.5874 13.777 5.96307 13.777 7.09947V9.68221C13.777 10.4805 13.7348 10.5838 13.0213 10.6918V11.152H16.4855L16.4808 11.1755ZM8.60888 4.12228C8.54786 3.17841 8.46337 1.89643 8.4399 1.28597H8.08315C7.82967 1.55833 7.62313 1.64286 7.24292 1.64286H1.3425C0.924728 1.64286 0.732272 1.61938 0.502263 1.28597H0.168986C0.15021 2.04201 0.0422464 3.11267 0 4.18333H0.525733C0.713495 3.45077 0.901257 2.94362 1.13596 2.71352C1.34719 2.48342 1.61945 2.31437 2.81643 2.31437H3.31869V9.24549C3.31869 10.4852 3.17318 10.5885 1.93395 10.673V11.1755H6.71718V10.6496C5.43571 10.5463 5.29019 10.4617 5.29019 9.22201V2.29089H5.96144C6.82045 2.29089 7.20067 2.37541 7.44945 2.64777C7.72171 2.92014 7.90947 3.40381 8.10193 4.15985L8.60419 4.11759L8.60888 4.12228Z" fill="white"/>
</svg>
